<?xml version="1.0" encoding="UTF-8"?>
<svg version="1.1" xmlns="http://www.w3.org/2000/svg" width="1014" height="1014">
<path d="M0 0 C1.31592636 -0.00705963 2.63185272 -0.01411926 3.98765564 -0.02139282 C8.21443229 -0.04093212 12.44115117 -0.04608491 16.66796875 -0.046875 C17.74794884 -0.04731686 17.74794884 -0.04731686 18.8497467 -0.04776764 C39.99099425 -0.04916596 60.89566788 0.08500029 81.85546875 3.203125 C83.28351437 3.40927858 84.71157498 3.61532838 86.13964844 3.82128906 C169.90996079 16.06849365 250.96488264 47.10603403 318.85546875 98.203125 C319.94746582 99.01910156 319.94746582 99.01910156 321.06152344 99.8515625 C333.29540738 109.00682743 345.02323673 118.60982469 356.32080078 128.90356445 C357.90649832 130.34217793 359.49917865 131.77317412 361.10205078 133.19262695 C367.29226964 138.68369838 373.21579058 144.40810594 379.05200195 150.26928711 C380.548518 151.77119425 382.05035175 153.26763562 383.55273438 154.76367188 C388.86427607 160.07122149 393.99226764 165.47787175 398.85546875 171.203125 C399.80449367 172.28646852 400.75496198 173.3685497 401.70703125 174.44921875 C408.89154214 182.68590292 415.62301259 191.20792675 422.17138672 199.95703125 C423.87060085 202.22330698 425.58345342 204.47882935 427.296875 206.734375 C441.48628457 225.54692039 453.57365397 245.53743677 464.85546875 266.203125 C465.60908691 267.57259277 465.60908691 267.57259277 466.37792969 268.96972656 C502.63929981 335.19332184 524.78803717 413.65155857 525.05859375 489.34765625 C525.06565338 490.66358261 525.07271301 491.97950897 525.07998657 493.33531189 C525.09952587 497.56208854 525.10467866 501.78880742 525.10546875 506.015625 C525.10591061 507.09560509 525.10591061 507.09560509 525.10636139 508.19740295 C525.10775971 529.3386505 524.97359346 550.24332413 521.85546875 571.203125 C521.64931517 572.63117062 521.44326537 574.05923123 521.23730469 575.48730469 C508.9901001 659.25761704 477.95255972 740.31253889 426.85546875 808.203125 C426.31148437 808.93112305 425.7675 809.65912109 425.20703125 810.40917969 C416.05176632 822.64306363 406.44876906 834.37089298 396.1550293 845.66845703 C394.71641582 847.25415457 393.28541963 848.8468349 391.8659668 850.44970703 C386.37489537 856.63992589 380.65048781 862.56344683 374.78930664 868.3996582 C373.2873995 869.89617425 371.79095813 871.398008 370.29492188 872.90039062 C364.98737226 878.21193232 359.580722 883.33992389 353.85546875 888.203125 C352.77212523 889.15214992 351.69004405 890.10261823 350.609375 891.0546875 C342.37269083 898.23919839 333.850667 904.97066884 325.1015625 911.51904297 C322.83528677 913.2182571 320.5797644 914.93110967 318.32421875 916.64453125 C299.51167336 930.83394082 279.52115698 942.92131022 258.85546875 954.203125 C257.48600098 954.95674316 257.48600098 954.95674316 256.08886719 955.72558594 C189.86527191 991.98695606 111.40703518 1014.13569342 35.7109375 1014.40625 C34.39501114 1014.41330963 33.07908478 1014.42036926 31.72328186 1014.42764282 C27.49650521 1014.44718212 23.26978633 1014.45233491 19.04296875 1014.453125 C17.96298866 1014.45356686 17.96298866 1014.45356686 16.8611908 1014.45401764 C-4.28005675 1014.45541596 -25.18473038 1014.32124971 -46.14453125 1011.203125 C-47.57257687 1010.99697142 -49.00063748 1010.79092162 -50.42871094 1010.58496094 C-134.19902329 998.33775635 -215.25394514 967.30021597 -283.14453125 916.203125 C-283.8725293 915.65914062 -284.60052734 915.11515625 -285.35058594 914.5546875 C-297.58446988 905.39942257 -309.31229923 895.79642531 -320.60986328 885.50268555 C-322.19556082 884.06407207 -323.78824115 882.63307588 -325.39111328 881.21362305 C-331.58133214 875.72255162 -337.50485308 869.99814406 -343.34106445 864.13696289 C-344.8375805 862.63505575 -346.33941425 861.13861438 -347.84179688 859.64257812 C-353.15333857 854.33502851 -358.28133014 848.92837825 -363.14453125 843.203125 C-364.09355617 842.11978148 -365.04402448 841.0377003 -365.99609375 839.95703125 C-373.18060464 831.72034708 -379.91207509 823.19832325 -386.46044922 814.44921875 C-388.15966335 812.18294302 -389.87251592 809.92742065 -391.5859375 807.671875 C-405.77534707 788.85932961 -417.86271647 768.86881323 -429.14453125 748.203125 C-429.89814941 746.83365723 -429.89814941 746.83365723 -430.66699219 745.43652344 C-466.92836231 679.21292816 -489.07709967 600.75469143 -489.34765625 525.05859375 C-489.35471588 523.74266739 -489.36177551 522.42674103 -489.36904907 521.07093811 C-489.38858837 516.84416146 -489.39374116 512.61744258 -489.39453125 508.390625 C-489.39482582 507.67063828 -489.39512039 506.95065155 -489.39542389 506.20884705 C-489.39682221 485.0675995 -489.26265596 464.16292587 -486.14453125 443.203125 C-485.93837767 441.77507938 -485.73232787 440.34701877 -485.52636719 438.91894531 C-473.2791626 355.14863296 -442.24162222 274.09371111 -391.14453125 206.203125 C-390.60054688 205.47512695 -390.0565625 204.74712891 -389.49609375 203.99707031 C-380.34082882 191.76318637 -370.73783156 180.03535702 -360.4440918 168.73779297 C-359.00547832 167.15209543 -357.57448213 165.5594151 -356.1550293 163.95654297 C-350.66395787 157.76632411 -344.93955031 151.84280317 -339.07836914 146.0065918 C-337.576462 144.51007575 -336.08002063 143.008242 -334.58398438 141.50585938 C-329.27643476 136.19431768 -323.8697845 131.06632611 -318.14453125 126.203125 C-317.06118773 125.25410008 -315.97910655 124.30363177 -314.8984375 123.3515625 C-306.66175333 116.16705161 -298.1397295 109.43558116 -289.390625 102.88720703 C-287.12434927 101.1879929 -284.8688269 99.47514033 -282.61328125 97.76171875 C-263.80073586 83.57230918 -243.81021948 71.48493978 -223.14453125 60.203125 C-221.77506348 59.44950684 -221.77506348 59.44950684 -220.37792969 58.68066406 C-154.15433441 22.41929394 -75.69609768 0.27055658 0 0 Z " fill="#FEBC59" transform="translate(489.14453125,-0.203125)"/>
<path d="M0 0 C2.55137422 0.94716356 5.1333885 1.79745557 7.71240234 2.66601562 C14.38493317 5.11608554 20.65683076 8.42415618 26.95556641 11.69482422 C28.80941614 12.6497147 30.67830634 13.57525256 32.54833984 14.49804688 C50.20940263 23.44553895 66.50043657 35.38608488 81.52490234 48.22851562 C82.36311523 48.94322021 82.36311523 48.94322021 83.21826172 49.67236328 C84.31624624 50.60972145 85.41345426 51.54799018 86.50976562 52.48730469 C87.70578252 53.50924585 88.9092682 54.52243945 90.11474609 55.53320312 C100.43230675 64.30203903 109.58882449 74.10871485 117.96240234 84.72851562 C118.9036676 85.85971177 119.84784271 86.98849097 120.79443359 88.11523438 C128.5499157 97.42508261 134.9640745 107.2108715 140.96240234 117.72851562 C141.46835937 118.61555176 141.97431641 119.50258789 142.49560547 120.41650391 C156.06660964 144.39278544 167.14956529 169.68381363 172.96240234 196.72851562 C173.31144412 198.23791253 173.66176516 199.74701403 174.01318359 201.25585938 C178.04470932 218.91630818 179.14589705 236.03026974 179.21240234 254.10351562 C179.21776001 254.92494049 179.22311768 255.74636536 179.2286377 256.59268188 C179.27768315 266.51807002 178.87628604 275.95637371 176.96240234 285.72851562 C178.11611328 285.69371094 179.26982422 285.65890625 180.45849609 285.62304688 C217.78005153 284.86138248 254.87280827 293.84888818 284.96240234 316.72851562 C285.97560547 317.46585937 286.98880859 318.20320313 288.03271484 318.96289062 C313.73563934 337.8825131 331.35359766 364.85314613 341.96240234 394.72851562 C342.38972656 395.85580078 342.38972656 395.85580078 342.82568359 397.00585938 C348.12803638 411.6077232 349.19969517 427.02956312 349.21240234 442.41601562 C349.21341446 443.51574707 349.21341446 443.51574707 349.21444702 444.63769531 C349.1509294 488.19534677 333.20418849 527.21861125 302.49365234 558.22070312 C301.65833984 559.04828125 300.82302734 559.87585938 299.96240234 560.72851562 C299.14384766 561.54449219 298.32529297 562.36046875 297.48193359 563.20117188 C268.86501206 590.57926564 229.39377751 605.3095578 190.08676147 605.08013916 C188.23089417 605.08056647 186.37502678 605.08233526 184.51916182 605.08531451 C179.46295624 605.0897341 174.40694892 605.07574246 169.35077667 605.05864215 C163.88107694 605.04353365 158.41138223 605.0460342 152.94166565 605.0466156 C143.47630786 605.04554296 134.01100681 605.0343504 124.54566574 605.01694489 C109.57792264 604.99010846 94.61024712 604.99209131 79.64248657 604.99822998 C74.51429563 604.99995228 69.38610464 605.00143933 64.25791359 605.00281906 C62.33596138 605.00333764 62.33596138 605.00333764 60.37518185 605.00386669 C45.81375901 605.00728343 31.25233945 605.00360303 16.69091797 604.99755859 C16.02609041 604.99728946 15.36126285 604.99702033 14.67628899 604.99674305 C-0.83900494 604.99037745 -16.35428539 604.97930909 -31.86956787 604.95916748 C-32.53726799 604.95830277 -33.20496812 604.95743807 -33.89290158 604.95654715 C-37.26010642 604.95217132 -40.62731119 604.94774626 -43.99451594 604.94330594 C-44.66005617 604.94242875 -45.3255964 604.94155156 -46.01130451 604.94064779 C-47.35463342 604.93887528 -48.69796233 604.9370979 -50.04129122 604.93531566 C-72.88598073 604.90515433 -95.7305844 604.9016019 -118.57528722 604.92287421 C-132.23909426 604.93455224 -145.90251961 604.92387234 -159.56627594 604.88425627 C-168.92792709 604.85891513 -178.28936211 604.85891095 -187.65102579 604.87871537 C-193.04841504 604.88931867 -198.44517149 604.88857675 -203.84249306 604.85707664 C-208.7897568 604.82842367 -213.73591642 604.83237341 -218.68316738 604.8615174 C-220.46624593 604.86637195 -222.24940569 604.85954659 -224.0323772 604.83941486 C-235.91883112 604.71373348 -243.81305488 606.4806664 -254.03759766 612.72851562 C-255.49733922 613.52845826 -256.95987092 614.32339583 -258.42822266 615.10742188 C-259.71615167 615.83268096 -261.00259485 616.56058447 -262.28759766 617.29101562 C-269.8641173 621.54955377 -277.50249459 625.68491444 -285.16259766 629.79101562 C-292.37237215 633.65602266 -299.55837711 637.54755674 -306.66259766 641.60351562 C-311.44377836 644.3289901 -316.27735473 646.87812782 -321.22509766 649.29101562 C-328.9545224 653.06681063 -336.45971395 657.23566878 -343.97509766 661.41601562 C-354.33711191 667.17929959 -364.76760078 672.76984825 -375.31396484 678.19140625 C-382.42832469 681.85841136 -389.44833929 685.66436945 -396.3840332 689.65966797 C-400.18848344 691.824261 -403.80467926 693.49748026 -408.03759766 694.72851562 C-406.77965024 690.6830458 -405.28692081 687.04294687 -403.27978516 683.31445312 C-402.74015137 682.3115625 -402.20051758 681.30867187 -401.64453125 680.27539062 C-401.07299316 679.22867188 -400.50145508 678.18195312 -399.91259766 677.10351562 C-399.03788818 675.49089844 -399.03788818 675.49089844 -398.14550781 673.84570312 C-394.57096877 667.32387601 -390.80040207 661.14108611 -386.53759766 655.04882812 C-384.81781133 652.38853365 -383.79957375 649.82575699 -382.84863281 646.82226562 C-381.92257021 644.43156337 -380.7237811 642.41603028 -379.37353516 640.23632812 C-375.86457611 634.47995183 -372.56810812 628.61734949 -369.28759766 622.72851562 C-368.67634033 621.63418213 -368.06508301 620.53984863 -367.43530273 619.41235352 C-363.45022757 612.27432074 -359.47735668 605.12950551 -355.51293945 597.97998047 C-352.52943709 592.60243084 -349.51451703 587.2431244 -346.49023438 581.88842773 C-344.47644705 578.31423941 -342.4856142 574.72896124 -340.52197266 571.12695312 C-334.33836759 559.78481426 -327.93669821 548.58796119 -321.39697266 537.44726562 C-320.85234375 536.51914062 -320.30771484 535.59101562 -319.74658203 534.63476562 C-318.53256559 532.57024395 -317.31471708 530.50797355 -316.09423828 528.44726562 C-315.46195312 527.37476563 -314.82966797 526.30226563 -314.17822266 525.19726562 C-313.60104492 524.22208984 -313.02386719 523.24691406 -312.42919922 522.2421875 C-310.93375539 519.72170249 -310.93375539 519.72170249 -310.03759766 516.72851562 C-353.26759766 516.72851562 -396.49759766 516.72851562 -441.03759766 516.72851562 C-438.01640168 513.70731965 -434.83766642 511.48554463 -431.28759766 509.16601562 C-429.92553042 508.26771165 -428.5635537 507.36927041 -427.20166016 506.47070312 C-426.15993652 505.78572754 -426.15993652 505.78572754 -425.09716797 505.08691406 C-422.55222162 503.40838377 -420.01980317 501.71162408 -417.48779297 500.01367188 C-400.99193039 488.96347393 -384.34666265 478.32751517 -366.99169922 468.67285156 C-362.65632787 466.25826357 -358.33334515 463.82185357 -354.00976562 461.38623047 C-351.40958567 459.93599046 -348.79295606 458.52481435 -346.16650391 457.12304688 C-334.59153307 450.74342154 -326.09876296 442.17502603 -316.95556641 432.71289062 C-299.92645399 415.19051214 -277.77359704 401.6115486 -254.03759766 395.72851562 C-252.30896484 395.21417969 -252.30896484 395.21417969 -250.54541016 394.68945312 C-239.43864224 391.64684187 -227.59392326 391.48240934 -216.16259766 390.79101562 C-205.74236772 390.1465311 -195.61320142 389.17410556 -185.37060547 387.17578125 C-180.58308525 386.25795611 -175.77713658 385.44127113 -170.97509766 384.60351562 C-170.02256104 384.43287598 -169.07002441 384.26223633 -168.08862305 384.08642578 C-167.17330811 383.9244873 -166.25799316 383.76254883 -165.31494141 383.59570312 C-164.11212524 383.38083252 -164.11212524 383.38083252 -162.88500977 383.16162109 C-156.13065784 382.13425075 -149.44992963 381.56258497 -142.61962891 381.49023438 C-141.84811493 381.48048584 -141.07660095 381.4707373 -140.28170776 381.46069336 C-123.51663432 381.2923165 -107.35217805 381.36283281 -91.03759766 385.72851562 C-90.19825684 385.95297363 -89.35891602 386.17743164 -88.49414062 386.40869141 C-83.63723934 387.73735241 -78.8281295 389.17826394 -74.03759766 390.72851562 C-76.67477292 393.99672926 -79.613993 394.75410683 -83.53759766 396.04101562 C-101.70846714 402.51860395 -118.54743557 412.36050706 -134.53759766 423.04101562 C-135.62790283 423.76901367 -136.71820801 424.49701172 -137.84155273 425.24707031 C-148.58197465 432.56808921 -158.61020703 440.77967275 -168.03759766 449.72851562 C-168.76849609 450.42074219 -169.49939453 451.11296875 -170.25244141 451.82617188 C-170.90341797 452.49519531 -171.55439453 453.16421875 -172.22509766 453.85351562 C-173.08167969 454.72363281 -173.08167969 454.72363281 -173.95556641 455.61132812 C-175.60730674 458.84325325 -174.73736334 461.22968719 -174.03759766 464.72851562 C-169.48092804 494.66284159 -172.00550501 526.72990569 -189.03759766 552.72851562 C-190.84030102 555.15937747 -192.68313129 557.52800855 -194.61962891 559.85351562 C-196.23160636 561.77719407 -196.23160636 561.77719407 -197.03759766 564.72851562 C-146.57303035 564.64671186 -96.10849116 564.55452897 -45.64396869 564.44846401 C-39.68354439 564.43594543 -33.72311991 564.42351262 -27.76269531 564.41113281 C-26.57610298 564.40866682 -25.38951065 564.40620082 -24.16696097 564.4036601 C-4.96437643 564.36395743 14.23821399 564.33119906 33.44081558 564.30101581 C53.15057708 564.26988048 72.86031372 564.23126217 92.57004726 564.18572557 C104.72788221 564.15787158 116.88569902 564.13582514 129.04355727 564.12125312 C137.38537874 564.11069523 145.72716503 564.09285608 154.06895997 564.06934859 C158.87868712 564.05600783 163.68836508 564.0458224 168.49811172 564.04430199 C172.90907052 564.04283648 177.31991101 564.03214476 181.7308334 564.01438121 C183.31922139 564.00956555 184.90762373 564.00801936 186.49601747 564.01023681 C199.00220006 564.02481884 211.3063695 563.25551064 223.33740234 559.54101562 C224.04018311 559.32743408 224.74296387 559.11385254 225.46704102 558.89379883 C256.96664097 548.97302497 280.65439709 527.76672734 295.96240234 498.72851562 C304.75234965 481.31226364 308.16407877 464.34777176 308.14990234 444.97851562 C308.14909668 443.8319751 308.14829102 442.68543457 308.14746094 441.50415039 C308.08878943 433.39080125 307.57841202 425.69555632 305.96240234 417.72851562 C305.82962891 416.93316406 305.69685547 416.1378125 305.56005859 415.31835938 C304.34315811 408.74709675 301.70733944 402.79184465 298.96240234 396.72851562 C298.53056641 395.75785156 298.09873047 394.7871875 297.65380859 393.78710938 C291.79612302 381.32500777 283.44780235 370.64182841 273.96240234 360.72851562 C273.37974609 360.09429688 272.79708984 359.46007812 272.19677734 358.80664062 C265.05620302 351.26566026 256.27002816 346.18120137 247.23583984 341.20898438 C246.48560547 340.72042969 245.73537109 340.231875 244.96240234 339.72851562 C244.96240234 339.06851562 244.96240234 338.40851563 244.96240234 337.72851562 C244.31013672 337.6228125 243.65787109 337.51710938 242.98583984 337.40820312 C239.84615617 336.70238276 236.91987648 335.72485237 233.88842773 334.65869141 C207.60684527 325.46222892 182.13161944 326.48047123 155.00146484 331.30273438 C153.83514526 331.50932678 153.83514526 331.50932678 152.64526367 331.72009277 C150.75088589 332.05572235 148.85663111 332.39204606 146.96240234 332.72851562 C146.98334961 331.52243652 147.00429688 330.31635742 147.02587891 329.07373047 C147.40748722 304.93564577 147.34125301 281.54737453 142.96240234 257.72851562 C142.7809668 256.73561523 142.59953125 255.74271484 142.41259766 254.71972656 C141.4925849 249.78785489 140.49650847 244.87853085 139.42163086 239.97827148 C138.91268386 237.48494527 138.51533686 234.98237193 138.10693359 232.47070312 C136.96112601 226.10074293 134.9375869 220.12932497 132.77490234 214.04101562 C132.36981445 212.8925415 131.96472656 211.74406738 131.54736328 210.56079102 C123.41743309 187.79281565 112.73121161 165.64411474 98.96240234 145.72851562 C98.39521484 144.88160156 97.82802734 144.0346875 97.24365234 143.16210938 C88.77441899 130.71792923 79.18696301 119.39812654 68.74755859 108.58105469 C67.5752325 107.36447778 66.40836537 106.14261206 65.24755859 104.91503906 C56.82371488 96.00969389 47.8348877 88.47222179 37.96386719 81.21728516 C35.54132171 79.41529902 33.17539424 77.54847332 30.80859375 75.67431641 C24.17777749 70.44714801 17.24959999 65.97938092 9.96240234 61.72851562 C9.08551758 61.21393799 9.08551758 61.21393799 8.19091797 60.68896484 C-23.35086827 42.21570788 -59.75199114 30.21804251 -96.03759766 25.72851562 C-96.83746094 25.62410156 -97.63732422 25.5196875 -98.46142578 25.41210938 C-141.84886564 19.84329094 -188.24527921 24.96544629 -229.26318359 40.04980469 C-234.24043501 41.86371286 -238.76329661 43.03798993 -244.03759766 43.72851562 C-246.56110089 44.72785726 -246.56110089 44.72785726 -248.85009766 46.04101562 C-252.06271388 47.79385442 -255.27625591 49.23116684 -258.68603516 50.54492188 C-264.29663031 52.75341968 -269.54648036 55.49742798 -274.85009766 58.35351562 C-276.66790798 59.32711382 -278.48688124 60.29854446 -280.30712891 61.26757812 C-281.09708252 61.69248535 -281.88703613 62.11739258 -282.70092773 62.55517578 C-285.10135349 63.7605301 -287.53096652 64.76628465 -290.03759766 65.72851562 C-285.37236914 60.10631716 -280.5250036 54.56840767 -275.03759766 49.72851562 C-274.37759766 49.72851562 -273.71759766 49.72851562 -273.03759766 49.72851562 C-273.03759766 49.06851563 -273.03759766 48.40851563 -273.03759766 47.72851562 C-271.2465045 46.08247578 -269.45669462 44.59062784 -267.53759766 43.10351562 C-266.92303711 42.62696533 -266.30847656 42.15041504 -265.67529297 41.65942383 C-214.34936787 2.58425817 -214.34936787 2.58425817 -186.03759766 -0.27148438 C-186.03759766 -0.93148437 -186.03759766 -1.59148437 -186.03759766 -2.27148438 C-123.19136336 -21.02082001 -62.17001527 -23.39926917 0 0 Z " fill="#3A393D" transform="translate(571.03759765625,171.271484375)"/>
<path d="M0 0 C0.77151398 -0.00974854 1.54302795 -0.01949707 2.33792114 -0.02954102 C19.10299458 -0.19791788 35.26745086 -0.12740157 51.58203125 4.23828125 C52.42137207 4.46273926 53.26071289 4.68719727 54.12548828 4.91845703 C58.98238956 6.24711804 63.79149941 7.68802957 68.58203125 9.23828125 C65.94485598 12.50649488 63.00563591 13.26387246 59.08203125 14.55078125 C40.91116176 21.02836958 24.07219334 30.87027268 8.08203125 41.55078125 C6.99172607 42.2787793 5.9014209 43.00677734 4.77807617 43.75683594 C-5.96234574 51.07785484 -15.99057812 59.28943837 -25.41796875 68.23828125 C-26.51431641 69.27662109 -26.51431641 69.27662109 -27.6328125 70.3359375 C-28.28378906 71.00496094 -28.93476563 71.67398438 -29.60546875 72.36328125 C-30.46205078 73.23339844 -30.46205078 73.23339844 -31.3359375 74.12109375 C-32.98767783 77.35301887 -32.11773444 79.73945282 -31.41796875 83.23828125 C-26.68132461 114.3549216 -29.76597904 147.41474135 -48.27734375 173.8984375 C-51.60195159 178.34269633 -51.60195159 178.34269633 -53.41796875 180.23828125 C-54.07796875 180.23828125 -54.73796875 180.23828125 -55.41796875 180.23828125 C-55.41796875 180.89828125 -55.41796875 181.55828125 -55.41796875 182.23828125 C-72.90796875 182.56828125 -90.39796875 182.89828125 -108.41796875 183.23828125 C-108.74796875 183.89828125 -109.07796875 184.55828125 -109.41796875 185.23828125 C-111.13295827 186.29720095 -112.89058306 187.28780762 -114.66796875 188.23828125 C-115.621875 188.75390625 -116.57578125 189.26953125 -117.55859375 189.80078125 C-120.41796875 191.23828125 -120.41796875 191.23828125 -122.80078125 192.16796875 C-127.07254521 193.91492894 -131.03994144 196.24576215 -135.06640625 198.4921875 C-140.09588198 201.23828125 -140.09588198 201.23828125 -143.41796875 201.23828125 C-143.41796875 201.89828125 -143.41796875 202.55828125 -143.41796875 203.23828125 C-144.12179687 203.57859375 -144.825625 203.91890625 -145.55078125 204.26953125 C-153.70854465 208.2738642 -161.55704531 212.68722031 -169.41796875 217.23828125 C-173.61758274 219.64871058 -177.74767874 222.01909549 -182.23046875 223.86328125 C-185.38266552 225.06727209 -185.38266552 225.06727209 -187.60546875 226.92578125 C-189.41796875 228.23828125 -189.41796875 228.23828125 -193.41796875 228.23828125 C-193.41796875 228.89828125 -193.41796875 229.55828125 -193.41796875 230.23828125 C-200.16796875 233.23828125 -200.16796875 233.23828125 -202.41796875 233.23828125 C-202.41796875 233.89828125 -202.41796875 234.55828125 -202.41796875 235.23828125 C-203.07667969 235.47289062 -203.73539062 235.7075 -204.4140625 235.94921875 C-209.04368335 237.93592211 -213.29687783 240.56546787 -217.62304688 243.13671875 C-218.30947266 243.53375 -218.99589844 243.93078125 -219.703125 244.33984375 C-220.3206665 244.70416504 -220.93820801 245.06848633 -221.57446289 245.44384766 C-223.41796875 246.23828125 -223.41796875 246.23828125 -227.41796875 246.23828125 C-226.81411253 241.944799 -225.28236298 238.80853821 -223.171875 235.0390625 C-222.84526886 234.45126007 -222.51866272 233.86345764 -222.18215942 233.25784302 C-221.12122493 231.35189704 -220.05093313 229.4513883 -218.98046875 227.55078125 C-218.24325353 226.23025783 -217.50668479 224.90937329 -216.77075195 223.58813477 C-215.31653428 220.97960583 -213.85882841 218.37308478 -212.39746094 215.76855469 C-210.34732053 212.11452817 -208.31047876 208.45322691 -206.27807617 204.78930664 C-205.49560171 203.37896281 -204.71190743 201.96929507 -203.92700195 200.56030273 C-201.88749769 196.89822357 -199.8636894 193.22834553 -197.859375 189.546875 C-191.6930203 178.23342576 -185.300221 167.06874314 -178.77734375 155.95703125 C-178.23271484 155.02890625 -177.68808594 154.10078125 -177.12695312 153.14453125 C-175.91293668 151.08000957 -174.69508818 149.01773918 -173.47460938 146.95703125 C-172.84232422 145.88453125 -172.21003906 144.81203125 -171.55859375 143.70703125 C-170.98141602 142.73185547 -170.40423828 141.75667969 -169.80957031 140.75195312 C-168.31412649 138.23146811 -168.31412649 138.23146811 -167.41796875 135.23828125 C-210.64796875 135.23828125 -253.87796875 135.23828125 -298.41796875 135.23828125 C-295.39677277 132.21708527 -292.21803751 129.99531026 -288.66796875 127.67578125 C-287.30590151 126.77747727 -285.9439248 125.87903603 -284.58203125 124.98046875 C-283.88754883 124.52381836 -283.19306641 124.06716797 -282.47753906 123.59667969 C-279.93259271 121.9181494 -277.40017426 120.22138971 -274.86816406 118.5234375 C-258.37230148 107.47323956 -241.72703375 96.8372808 -224.37207031 87.18261719 C-220.03669896 84.7680292 -215.71371625 82.3316192 -211.39013672 79.89599609 C-208.78995676 78.44575608 -206.17332715 77.03457997 -203.546875 75.6328125 C-191.97190416 69.25318716 -183.47913405 60.68479166 -174.3359375 51.22265625 C-157.30682508 33.70027777 -135.15396813 20.12131422 -111.41796875 14.23828125 C-110.26554688 13.89539063 -109.113125 13.5525 -107.92578125 13.19921875 C-96.81901333 10.15660749 -84.97429436 9.99217497 -73.54296875 9.30078125 C-63.12273881 8.65629673 -52.99357252 7.68387119 -42.75097656 5.68554688 C-37.96345634 4.76772173 -33.15750767 3.95103675 -28.35546875 3.11328125 C-27.40293213 2.9426416 -26.45039551 2.77200195 -25.46899414 2.59619141 C-24.5536792 2.43425293 -23.63836426 2.27231445 -22.6953125 2.10546875 C-21.89343506 1.96222168 -21.09155762 1.81897461 -20.26538086 1.67138672 C-13.51102893 0.64401637 -6.83030072 0.0723506 0 0 Z " fill="#172B40" transform="translate(428.41796875,552.76171875)"/>
<path d="M0 0 C2.55137422 0.94716356 5.1333885 1.79745557 7.71240234 2.66601562 C14.38493317 5.11608554 20.65683076 8.42415618 26.95556641 11.69482422 C28.80941614 12.6497147 30.67830634 13.57525256 32.54833984 14.49804688 C50.20940263 23.44553895 66.50043657 35.38608488 81.52490234 48.22851562 C82.08371094 48.70498535 82.64251953 49.18145508 83.21826172 49.67236328 C84.31624624 50.60972145 85.41345426 51.54799018 86.50976562 52.48730469 C87.70578252 53.50924585 88.9092682 54.52243945 90.11474609 55.53320312 C100.43230675 64.30203903 109.58882449 74.10871485 117.96240234 84.72851562 C118.9036676 85.85971177 119.84784271 86.98849097 120.79443359 88.11523438 C128.5499157 97.42508261 134.9640745 107.2108715 140.96240234 117.72851562 C141.46835937 118.61555176 141.97431641 119.50258789 142.49560547 120.41650391 C156.06660964 144.39278544 167.14956529 169.68381363 172.96240234 196.72851562 C173.31144412 198.23791253 173.66176516 199.74701403 174.01318359 201.25585938 C178.04470932 218.91630818 179.14589705 236.03026974 179.21240234 254.10351562 C179.21776001 254.92494049 179.22311768 255.74636536 179.2286377 256.59268188 C179.2778769 266.55727935 178.77504348 275.9028498 176.96240234 285.72851562 C183.56240234 285.72851562 190.16240234 285.72851562 196.96240234 285.72851562 C201.4696363 295.86979202 201.4696363 295.86979202 201.67724609 300.35742188 C201.74588867 301.81631836 201.74588867 301.81631836 201.81591797 303.3046875 C201.84363281 304.29017578 201.87134766 305.27566406 201.89990234 306.29101562 C201.9546875 307.28037109 202.00947266 308.26972656 202.06591797 309.2890625 C202.30288808 315.55421963 201.57522647 320.02102189 198.96240234 325.72851562 C197.71873901 325.83341309 197.71873901 325.83341309 196.44995117 325.94042969 C193.25625583 326.21516567 190.06362167 326.49988048 186.87133789 326.79052734 C184.85740781 326.97111732 182.84253162 327.14106042 180.82763672 327.31054688 C169.38458388 328.33450091 158.21202672 330.42962407 146.96240234 332.72851562 C146.99382324 330.91939697 146.99382324 330.91939697 147.02587891 329.07373047 C147.40748722 304.93564577 147.34125301 281.54737453 142.96240234 257.72851562 C142.7809668 256.73561523 142.59953125 255.74271484 142.41259766 254.71972656 C141.4925849 249.78785489 140.49650847 244.87853085 139.42163086 239.97827148 C138.91268386 237.48494527 138.51533686 234.98237193 138.10693359 232.47070312 C136.96112601 226.10074293 134.9375869 220.12932497 132.77490234 214.04101562 C132.16727051 212.31830444 132.16727051 212.31830444 131.54736328 210.56079102 C123.41743309 187.79281565 112.73121161 165.64411474 98.96240234 145.72851562 C98.11162109 144.45814453 98.11162109 144.45814453 97.24365234 143.16210938 C88.77441899 130.71792923 79.18696301 119.39812654 68.74755859 108.58105469 C67.5752325 107.36447778 66.40836537 106.14261206 65.24755859 104.91503906 C56.82371488 96.00969389 47.8348877 88.47222179 37.96386719 81.21728516 C35.54132171 79.41529902 33.17539424 77.54847332 30.80859375 75.67431641 C24.17777749 70.44714801 17.24959999 65.97938092 9.96240234 61.72851562 C9.08551758 61.21393799 9.08551758 61.21393799 8.19091797 60.68896484 C-23.35086827 42.21570788 -59.75199114 30.21804251 -96.03759766 25.72851562 C-96.83746094 25.62410156 -97.63732422 25.5196875 -98.46142578 25.41210938 C-141.84886564 19.84329094 -188.24527921 24.96544629 -229.26318359 40.04980469 C-234.24043501 41.86371286 -238.76329661 43.03798993 -244.03759766 43.72851562 C-246.56110089 44.72785726 -246.56110089 44.72785726 -248.85009766 46.04101562 C-252.06271388 47.79385442 -255.27625591 49.23116684 -258.68603516 50.54492188 C-264.29663031 52.75341968 -269.54648036 55.49742798 -274.85009766 58.35351562 C-276.66790798 59.32711382 -278.48688124 60.29854446 -280.30712891 61.26757812 C-281.09708252 61.69248535 -281.88703613 62.11739258 -282.70092773 62.55517578 C-285.10135349 63.7605301 -287.53096652 64.76628465 -290.03759766 65.72851562 C-285.37236914 60.10631716 -280.5250036 54.56840767 -275.03759766 49.72851562 C-274.37759766 49.72851562 -273.71759766 49.72851562 -273.03759766 49.72851562 C-273.03759766 49.06851563 -273.03759766 48.40851563 -273.03759766 47.72851562 C-271.2465045 46.08247578 -269.45669462 44.59062784 -267.53759766 43.10351562 C-266.92303711 42.62696533 -266.30847656 42.15041504 -265.67529297 41.65942383 C-214.34936787 2.58425817 -214.34936787 2.58425817 -186.03759766 -0.27148438 C-186.03759766 -0.93148437 -186.03759766 -1.59148437 -186.03759766 -2.27148438 C-123.19136336 -21.02082001 -62.17001527 -23.39926917 0 0 Z " fill="#182B41" transform="translate(571.03759765625,171.271484375)"/>
<path d="M0 0 C1.63719776 1.36493449 3.29560679 2.69474216 4.97070312 4.01269531 C10.6090211 8.49562026 15.80397142 13.25402347 20.76757812 18.47363281 C20.10757812 18.80363281 19.44757813 19.13363281 18.76757812 19.47363281 C16.94946289 18.81201172 16.94946289 18.81201172 14.70898438 17.70019531 C13.43861328 17.08748779 13.43861328 17.08748779 12.14257812 16.46240234 C11.21445312 16.0123584 10.28632813 15.56231445 9.33007812 15.09863281 C-10.36124584 5.89038919 -30.67028479 -0.61952229 -52.23242188 -3.52636719 C-52.91828369 -3.6265918 -53.60414551 -3.72681641 -54.31079102 -3.83007812 C-61.64852105 -4.79369637 -69.03021054 -4.7690267 -76.41992188 -4.77636719 C-77.1249585 -4.77737427 -77.82999512 -4.77838135 -78.55639648 -4.77941895 C-90.97541633 -4.76747893 -103.02344232 -3.87484938 -115.23242188 -1.52636719 C-116.24852539 -1.34146729 -116.24852539 -1.34146729 -117.28515625 -1.15283203 C-126.75771493 0.63584374 -135.67268227 3.96494291 -144.66992188 7.34863281 C-145.77239258 7.75927979 -146.87486328 8.16992676 -148.01074219 8.59301758 C-153.93874587 10.89180565 -159.05145989 13.45467697 -164.23291016 17.13598633 C-167.05126987 19.02143112 -170.10784489 20.17684306 -173.23242188 21.47363281 C-175.66460574 22.84031477 -177.98130337 24.35355631 -180.29492188 25.91113281 C-180.93977539 26.34433838 -181.58462891 26.77754395 -182.24902344 27.22387695 C-223.88922132 55.80456372 -252.08516293 101.08642334 -261.84179688 150.32128906 C-265.5218964 170.59863745 -265.75096196 192.17821961 -262.23242188 212.47363281 C-262.0071582 213.79935303 -262.0071582 213.79935303 -261.77734375 215.15185547 C-260.20284923 224.33177599 -258.59139996 233.45896655 -256.23242188 242.47363281 C-270.24524311 229.12953623 -277.26344252 207.68674871 -282.23242188 189.47363281 C-282.43206543 188.74402344 -282.63170898 188.01441406 -282.83740234 187.26269531 C-290.09229593 160.12878106 -291.34962007 128.98124926 -285.23242188 101.47363281 C-284.95398438 100.2090625 -284.67554688 98.94449219 -284.38867188 97.64160156 C-282.54487072 90.17897534 -280.10575208 82.92618403 -277.60742188 75.66113281 C-277.30610352 74.78199219 -277.00478516 73.90285156 -276.69433594 72.99707031 C-276.26072754 71.76923828 -276.26072754 71.76923828 -275.81835938 70.51660156 C-275.56103027 69.78465576 -275.30370117 69.05270996 -275.03857422 68.29858398 C-274.23242188 66.47363281 -274.23242188 66.47363281 -272.23242188 64.47363281 C-271.71873648 63.1321801 -271.24635717 61.77479488 -270.79492188 60.41113281 C-257.43268276 25.95849389 -224.04285223 -2.68329937 -192.23242188 -19.52636719 C-191.07355469 -20.15542969 -189.9146875 -20.78449219 -188.72070312 -21.43261719 C-182.71483479 -24.40441618 -176.33063796 -26.42123526 -169.98242188 -28.52636719 C-169.32167664 -28.7470285 -168.6609314 -28.96768982 -167.98016357 -29.19503784 C-156.89056232 -32.87889272 -145.8061346 -35.81874709 -134.23242188 -37.52636719 C-132.99621094 -37.71585937 -131.76 -37.90535156 -130.48632812 -38.10058594 C-85.59245306 -43.42856546 -34.67220129 -28.97786166 0 0 Z " fill="#182B3F" transform="translate(380.232421875,411.5263671875)"/>
<path d="M0 0 C2.103047 1.9589008 4.17760346 3.9462586 6.25 5.9375 C6.90548828 6.56043945 7.56097656 7.18337891 8.23632812 7.82519531 C24.33654107 23.19223389 36.29810583 39.59995432 47.25 58.9375 C47.85714844 60.00484375 48.46429687 61.0721875 49.08984375 62.171875 C53.54547103 70.53947212 56.46445319 79.52859686 59.44042969 88.50244141 C60.16704466 90.68798354 60.91306625 92.86572426 61.6640625 95.04296875 C65.27949909 105.77269525 67.48360589 116.76331149 69.25 127.9375 C69.41230103 128.92472046 69.41230103 128.92472046 69.57788086 129.93188477 C70.72429251 138.21488537 70.35692872 146.6566212 70.3125 155 C70.3074758 156.64518093 70.30291452 158.29036335 70.29882812 159.93554688 C70.28789342 163.93623498 70.2706793 167.93685088 70.25 171.9375 C69.92 171.9375 69.59 171.9375 69.25 171.9375 C69.12471924 171.33502441 68.99943848 170.73254883 68.87036133 170.11181641 C66.49487986 158.75906187 64.01785724 147.48850337 60.7746582 136.34814453 C59.25 131.10479282 59.25 131.10479282 59.25 128.9375 C58.59 128.9375 57.93 128.9375 57.25 128.9375 C57.07984375 128.29683594 56.9096875 127.65617188 56.734375 126.99609375 C55.38275858 122.17197346 53.91133274 118.01976572 51.27734375 113.765625 C50.07997213 111.63494089 49.24091684 109.47265813 48.375 107.1875 C42.05885227 91.08373404 31.38172085 76.08149347 20.25 62.9375 C19.05890625 61.47183594 19.05890625 61.47183594 17.84375 59.9765625 C-2.1061348 35.59918686 -26.69926465 16.2336763 -54.75 1.9375 C-55.4625293 1.57430664 -56.17505859 1.21111328 -56.90917969 0.83691406 C-71.46950329 -6.48632562 -86.35736974 -11.52381278 -102.0625 -15.8125 C-103.13556396 -16.10648682 -104.20862793 -16.40047363 -105.31420898 -16.70336914 C-108.45002203 -17.53670766 -111.59242898 -18.3160734 -114.75 -19.0625 C-115.61125488 -19.27148926 -116.47250977 -19.48047852 -117.35986328 -19.69580078 C-128.3754323 -21.95214743 -139.80942712 -21.4593473 -151 -21.4375 C-152.13460663 -21.4362915 -153.26921326 -21.43508301 -154.4382019 -21.43383789 C-182.79181907 -21.35190329 -208.87556259 -18.81627059 -235.75 -9.0625 C-236.50539063 -8.79147461 -237.26078125 -8.52044922 -238.0390625 -8.24121094 C-242.3494744 -6.66987732 -246.55789376 -4.92461862 -250.75 -3.0625 C-251.42289062 -2.76375977 -252.09578125 -2.46501953 -252.7890625 -2.15722656 C-292.32362251 15.11917968 -292.32362251 15.11917968 -321.75 43.9375 C-322.41 43.6075 -323.07 43.2775 -323.75 42.9375 C-306.30530464 19.70218551 -286.0801162 -1.03031675 -261.75 -17.0625 C-261.09773438 -17.49272461 -260.44546875 -17.92294922 -259.7734375 -18.36621094 C-252.71807292 -22.98371903 -245.86702417 -27.43539237 -237.8828125 -30.28125 C-235.84662833 -31.02710501 -234.03313217 -31.91322126 -232.125 -32.9375 C-158.71112116 -70.30122363 -60.33116215 -54.33092395 0 0 Z " fill="#1A2C40" transform="translate(527.75,283.0625)"/>
<path d="M0 0 C4.88705618 2.44008165 7.57704073 5.56064125 10.3125 10.25 C11.56362131 15.25448523 10.84484915 20.04350724 8.8125 24.75 C4.95417278 29.53964759 1.08498234 32.6370609 -5.1875 33.375 C-10.93514127 32.80965824 -14.76307199 30.48547556 -18.6171875 26.203125 C-21.61313271 21.97156396 -22.74263764 18.28722524 -22.421875 13.1015625 C-21.74190872 9.71432306 -20.20135125 7.6178231 -18 5 C-17.360625 4.05125 -16.72125 3.1025 -16.0625 2.125 C-11.18200592 -1.26146528 -5.75960306 -0.85538659 0 0 Z " fill="#F7B95A" transform="translate(322,604)"/>
<path d="M0 0 C0.66 0 1.32 0 2 0 C1.88406494 0.61931396 1.76812988 1.23862793 1.64868164 1.87670898 C1.11658964 4.72969004 0.58951827 7.58357752 0.0625 10.4375 C-0.11990234 11.41138672 -0.30230469 12.38527344 -0.49023438 13.38867188 C-2.58110974 24.75543069 -3.19884286 35.71210531 -3.1875 47.25 C-3.1882251 47.99868347 -3.1889502 48.74736694 -3.18969727 49.51873779 C-3.18838703 61.77371165 -2.56605886 73.83507852 -1 86 C-1.66 86 -2.32 86 -3 86 C-3.13277344 84.72382812 -3.26554687 83.44765625 -3.40234375 82.1328125 C-3.58052665 80.46352004 -3.75892314 78.79425036 -3.9375 77.125 C-4.02451172 76.28324219 -4.11152344 75.44148437 -4.20117188 74.57421875 C-4.28818359 73.76855469 -4.37519531 72.96289062 -4.46484375 72.1328125 C-4.543396 71.38918457 -4.62194824 70.64555664 -4.70288086 69.87939453 C-4.91637347 67.91553684 -4.91637347 67.91553684 -6 66 C-7.5419836 43.74101324 -4.53352641 21.72131343 0 0 Z " fill="#B99F74" transform="translate(96,502)"/>
<path d="M0 0 C0.79934464 -0.00807175 1.59868927 -0.01614349 2.42225647 -0.02445984 C4.12970802 -0.03833954 5.83718777 -0.04904417 7.54467773 -0.05688477 C9.25797899 -0.0682396 10.97124978 -0.08841818 12.68432617 -0.1184082 C25.08652468 -0.33543758 36.23509609 1.03381147 48.22265625 4.23828125 C44.77659095 5.3918477 42.42710846 5.03369169 38.8984375 4.30859375 C28.79618787 2.62653456 18.62093374 3.02615717 8.41015625 3.11328125 C6.34961374 3.12333347 4.28906646 3.13245534 2.22851562 3.140625 C-2.77355693 3.16245544 -7.77539662 3.19686122 -12.77734375 3.23828125 C-12.13796875 2.92890625 -11.49859375 2.61953125 -10.83984375 2.30078125 C-6.99580063 0.32051661 -4.47549092 0.04295895 0 0 Z " fill="#D3AD73" transform="translate(426.77734375,550.76171875)"/>
<path d="M0 0 C-1.33292825 3.58540826 -3.59449841 5.50084077 -6.44433594 7.95996094 C-12.07576487 12.88713248 -12.07576487 12.88713248 -14.7890625 19.67578125 C-14.75419699 22.86597534 -14.54709832 25.85925039 -14 29 C-14.33 29 -14.66 29 -15 29 C-15.36708396 27.60750796 -15.71806563 26.21076667 -16.0625 24.8125 C-16.25972656 24.03519531 -16.45695312 23.25789062 -16.66015625 22.45703125 C-17.23979871 18.26628289 -16.6756393 15.89340734 -14.109375 12.5 C-13.33078125 11.675 -12.5521875 10.85 -11.75 10 C-10.93917969 9.13632812 -10.12835938 8.27265625 -9.29296875 7.3828125 C-8.53628906 6.59648438 -7.77960938 5.81015625 -7 5 C-6.45988281 4.41992188 -5.91976563 3.83984375 -5.36328125 3.2421875 C-2.27857143 0 -2.27857143 0 0 0 Z " fill="#D7AA65" transform="translate(412,613)"/>
<path d="M0 0 C0.33 0 0.66 0 1 0 C1.03738281 1.04414062 1.07476562 2.08828125 1.11328125 3.1640625 C1.53613275 13.11768897 2.53303281 22.87939741 3.98364258 32.73681641 C4.11407959 33.62546387 4.2445166 34.51411133 4.37890625 35.4296875 C4.4982251 36.21585449 4.61754395 37.00202148 4.74047852 37.81201172 C5 40 5 40 5 44 C4.34 44 3.68 44 3 44 C2.80083984 42.08574219 2.80083984 42.08574219 2.59765625 40.1328125 C2.41947335 38.46352004 2.24107686 36.79425036 2.0625 35.125 C1.97548828 34.28324219 1.88847656 33.44148437 1.79882812 32.57421875 C1.71181641 31.76855469 1.62480469 30.96289062 1.53515625 30.1328125 C1.456604 29.38918457 1.37805176 28.64555664 1.29711914 27.87939453 C1.08362653 25.91553684 1.08362653 25.91553684 0 24 C-0.08471364 22.18658158 -0.10721083 20.37005839 -0.09765625 18.5546875 C-0.09443359 17.47832031 -0.09121094 16.40195312 -0.08789062 15.29296875 C-0.07951172 14.16503906 -0.07113281 13.03710938 -0.0625 11.875 C-0.05798828 10.73933594 -0.05347656 9.60367188 -0.04882812 8.43359375 C-0.03701615 5.62234362 -0.02054507 2.8111977 0 0 Z " fill="#CEAB74" transform="translate(90,544)"/>
<path d="M0 0 C0.66 0 1.32 0 2 0 C4.40794849 6.25448465 5.54835685 11.94056104 5.8125 18.625 C5.86341797 19.43195313 5.91433594 20.23890625 5.96679688 21.0703125 C6.21122845 26.17437522 5.67690567 30.1699937 4 35 C3.10762091 31.9088168 2.84009754 29.07137898 2.75390625 25.859375 C2.72103516 24.87066406 2.68816406 23.88195312 2.65429688 22.86328125 C2.59356258 20.80348405 2.53621779 18.74358384 2.48242188 16.68359375 C2.28095242 10.82197308 1.66332147 5.62970344 0 0 Z " fill="#2E3F4A" transform="translate(769,458)"/>
<path d="M0 0 C0.66 0.33 1.32 0.66 2 1 C-0.11905463 3.17277714 -2.24472878 5.33826908 -4.375 7.5 C-4.97828125 8.12003906 -5.5815625 8.74007813 -6.203125 9.37890625 C-6.78320312 9.96542969 -7.36328125 10.55195313 -7.9609375 11.15625 C-8.49509277 11.70087891 -9.02924805 12.24550781 -9.57958984 12.80664062 C-11 14 -11 14 -13 14 C-13 14.66 -13 15.32 -13 16 C-14.32 16.33 -15.64 16.66 -17 17 C-17 16.01 -17 15.02 -17 14 C-14 12 -14 12 -11 12 C-10.67 11.01 -10.34 10.02 -10 9 C-8.22265625 7.24609375 -8.22265625 7.24609375 -6.0625 5.4375 C-3.96656037 3.66869432 -1.94005112 1.94005112 0 0 Z " fill="#DBB170" transform="translate(217,315)"/>
<path d="M0 0 C0.66 0.33 1.32 0.66 2 1 C0.09236669 2.98861775 -1.82515911 4.96565718 -3.75 6.9375 C-4.55824219 7.78344727 -4.55824219 7.78344727 -5.3828125 8.64648438 C-5.91132813 9.18466797 -6.43984375 9.72285156 -6.984375 10.27734375 C-7.70705566 11.02359009 -7.70705566 11.02359009 -8.44433594 11.78491211 C-10.25704528 13.20077124 -11.75631224 13.59147949 -14 14 C-13.04882866 12.8274869 -12.08882991 11.66212985 -11.125 10.5 C-10.59132813 9.8503125 -10.05765625 9.200625 -9.5078125 8.53125 C-9.01023437 8.0259375 -8.51265625 7.520625 -8 7 C-7.34 7 -6.68 7 -6 7 C-6 6.34 -6 5.68 -6 5 C-4.04072937 3.2856382 -2.04119788 1.61594832 0 0 Z " fill="#373E44" transform="translate(304,214)"/>
<path d="M0 0 C4.2742558 1.5830577 6.26531794 4.50568404 9 8 C4.52761347 6.58192622 0.28853694 4.88695626 -4 3 C-2.68 2.67 -1.36 2.34 0 2 C0 1.34 0 0.68 0 0 Z " fill="#374248" transform="translate(392,423)"/>
<path d="M0 0 C1.79244141 0.01740234 1.79244141 0.01740234 3.62109375 0.03515625 C5.41740234 0.04869141 5.41740234 0.04869141 7.25 0.0625 C8.17683594 0.07410156 9.10367187 0.08570313 10.05859375 0.09765625 C10.05859375 0.42765625 10.05859375 0.75765625 10.05859375 1.09765625 C8.18471898 1.43725815 6.30942678 1.76904316 4.43359375 2.09765625 C3.38945312 2.28328125 2.3453125 2.46890625 1.26953125 2.66015625 C-1.8471549 3.08481422 -4.80071437 3.17310831 -7.94140625 3.09765625 C-7.30203125 2.78828125 -6.66265625 2.47890625 -6.00390625 2.16015625 C-1.93539423 0.06425612 -1.93539423 0.06425612 0 0 Z " fill="#C8A978" transform="translate(400.94140625,553.90234375)"/>
<path d="M0 0 C1.32 0.33 2.64 0.66 4 1 C3.50628906 1.40992188 3.01257813 1.81984375 2.50390625 2.2421875 C1.86324219 2.78101563 1.22257813 3.31984375 0.5625 3.875 C-0.07558594 4.40867187 -0.71367187 4.94234375 -1.37109375 5.4921875 C-3.10805004 6.9222757 -3.10805004 6.9222757 -4 9 C-4.66 8.67 -5.32 8.34 -6 8 C-4.02 5.36 -2.04 2.72 0 0 Z " fill="#3B4143" transform="translate(210,318)"/>
<path d="M0 0 C0.33 1.32 0.66 2.64 1 4 C-1.31 5.65 -3.62 7.3 -6 9 C-6.66 8.67 -7.32 8.34 -8 8 C-5.36 5.36 -2.72 2.72 0 0 Z " fill="#323738" transform="translate(289,228)"/>
<path d="M0 0 C2.31 0.66 4.62 1.32 7 2 C6.67 1.34 6.34 0.68 6 0 C7.32 0.33 8.64 0.66 10 1 C10 2.32 10 3.64 10 5 C6.44219804 4.39009109 3.3171411 3.4216319 0 2 C0 1.34 0 0.68 0 0 Z " fill="#CFB486" transform="translate(393,428)"/>
<path d="M0 0 C0.66 0.33 1.32 0.66 2 1 C1.34 2.32 0.68 3.64 0 5 C1.65 4.34 3.3 3.68 5 3 C3.75 5 3.75 5 2 7 C0.68 7 -0.64 7 -2 7 C-1.125 2.25 -1.125 2.25 0 0 Z " fill="#C0AA8B" transform="translate(163,861)"/>
<path d="M0 0 C0.33 0.66 0.66 1.32 1 2 C-1.31 4.64 -3.62 7.28 -6 10 C-6.66 9.67 -7.32 9.34 -8 9 C-5.36 6.03 -2.72 3.06 0 0 Z " fill="#3D4445" transform="translate(140,428)"/>
<path d="M0 0 C2.56616632 3.84924948 2.55097676 6.4349304 3 11 C1.5 10 1.5 10 0 8 C-0.27345479 5.28153765 -0.13491285 2.74322801 0 0 Z " fill="#AF976E" transform="translate(95,590)"/>
</svg>
