<?xml version="1.0" encoding="UTF-8"?>
<svg version="1.1" xmlns="http://www.w3.org/2000/svg" width="878" height="757">
<path d="M0 0 C47.15546114 -1.39927184 93.10534956 9.64446266 134.95898438 31.06640625 C135.87454102 31.53449707 136.79009766 32.00258789 137.73339844 32.48486328 C154.84841251 41.32614257 170.28653741 51.57786396 184.95898438 64.06640625 C185.97476563 64.89785156 186.99054687 65.72929688 188.03710938 66.5859375 C203.62420983 79.4568243 217.954497 93.79586138 229.95898438 110.06640625 C230.76980469 111.0821875 231.580625 112.09796875 232.41601562 113.14453125 C242.95255086 126.35253447 251.77038044 140.69022916 258.96728516 155.96826172 C260.04080223 158.23950883 261.13743285 160.49874183 262.23632812 162.7578125 C280.12709958 199.7191712 289.0061286 238.38839515 289.20898438 279.44140625 C289.21841064 280.76027832 289.22783691 282.07915039 289.23754883 283.43798828 C289.207533 292.48917707 288.3596773 301.14057835 286.95898438 310.06640625 C288.19648437 310.03160156 289.43398438 309.99679687 290.70898438 309.9609375 C326.0241681 309.28060392 358.05618044 317.24992838 387.95898438 336.06640625 C388.66829102 336.51000488 389.37759766 336.95360352 390.10839844 337.41064453 C406.38585259 347.72275994 419.60703739 360.53810894 430.95898438 376.06640625 C431.5086084 376.81615723 432.05823242 377.5659082 432.62451172 378.33837891 C439.9331694 388.41292293 446.49991481 398.38665476 450.95898438 410.06640625 C451.28737305 410.92298828 451.61576172 411.77957031 451.95410156 412.66210938 C463.66624872 443.90169819 467.57809622 479.25039463 459.95898438 512.06640625 C459.765625 512.90349121 459.57226562 513.74057617 459.37304688 514.60302734 C455.28748993 531.59150447 448.85492612 548.56495462 438.95898438 563.06640625 C438.24355469 564.12601563 437.528125 565.185625 436.79101562 566.27734375 C430.75993238 575.04080191 424.10798832 583.19375189 416.95898438 591.06640625 C416.50410645 591.5680127 416.04922852 592.06961914 415.58056641 592.58642578 C408.48385079 600.3002471 400.65490969 606.32206221 391.95898438 612.06640625 C390.90839844 612.76636719 389.8578125 613.46632813 388.77539062 614.1875 C368.88765262 626.92459063 346.33788201 635.6857328 322.95898438 639.06640625 C321.21190123 639.3235695 321.21190123 639.3235695 319.42952347 639.58592796 C311.61553185 640.43657251 303.72323745 640.16626482 295.87420654 640.12368774 C294.01857409 640.11750906 292.16293996 640.1118211 290.30730462 640.10658014 C286.2799744 640.09429774 282.25267243 640.07889741 278.22536278 640.06111336 C271.67080987 640.03232408 265.11624536 640.01079326 258.56166077 639.99067688 C256.26583146 639.98358538 253.97000217 639.9764912 251.67417288 639.96939445 C250.51692133 639.96583008 249.35966977 639.96226572 248.16734999 639.95859334 C244.56944632 639.94727124 240.97154537 639.93528025 237.37364435 639.92314363 C219.84369106 639.8648187 202.31378935 639.83058352 184.78375244 639.81063843 C183.51430935 639.8091641 182.24486625 639.80768978 180.93695518 639.80617078 C169.14881687 639.79265595 157.36067714 639.78075865 145.57253599 639.77002072 C137.49187842 639.7626217 129.41122214 639.75430011 121.33056641 639.74511719 C120.32432778 639.74399304 120.32432778 639.74399304 119.2977611 639.74284619 C97.58908012 639.71826272 75.88083773 639.64754913 54.17235526 639.55376236 C31.17935247 639.45470134 8.1866861 639.41206632 -14.8065536 639.42671621 C-28.5509735 639.43362014 -42.29376145 639.39611086 -56.03785422 639.30010818 C-65.47885247 639.23840834 -74.9188869 639.23275756 -84.36000988 639.26956858 C-89.79246494 639.28912216 -95.22202989 639.28544794 -100.65411949 639.21440697 C-125.51245148 638.90748837 -144.05700702 640.38002659 -165.21462202 654.254462 C-169.42196083 656.95170252 -173.83535057 659.18871977 -178.29101562 661.44140625 C-179.77566172 662.22227667 -181.2589745 663.00569382 -182.74023438 663.79296875 C-185.69715296 665.3580394 -188.65846754 666.91433418 -191.62304688 668.46484375 C-193.11655446 669.24866362 -194.61004473 670.03251648 -196.10351562 670.81640625 C-196.75803711 671.15720215 -197.41255859 671.49799805 -198.08691406 671.84912109 C-201.70928566 673.75577741 -205.23529309 675.77010238 -208.73242188 677.8984375 C-214.67409187 681.4938632 -220.78357406 684.74783061 -226.91601562 688.00390625 C-228.13782764 688.65478095 -229.35950451 689.30590941 -230.58105469 689.95727539 C-232.47907857 690.96929899 -234.37721149 691.98111226 -236.27587891 692.9919281 C-240.70142909 695.3486221 -245.11931084 697.71920859 -249.53320312 700.09765625 C-270.26719298 711.26323814 -270.26719298 711.26323814 -280.64233398 716.34887695 C-287.94079907 719.95309389 -294.97344969 724.03402622 -302.04101562 728.06640625 C-304.14106289 729.26117613 -306.24472022 730.44964566 -308.35351562 731.62890625 C-309.19527344 732.10457031 -310.03703125 732.58023438 -310.90429688 733.0703125 C-313.04101563 734.06640625 -313.04101563 734.06640625 -316.04101562 734.06640625 C-315.52854684 728.58299025 -313.51095665 724.84270975 -310.79101562 720.19140625 C-309.87924269 718.59467208 -308.96917698 716.9969622 -308.06054688 715.3984375 C-307.57279785 714.54330566 -307.08504883 713.68817383 -306.58251953 712.80712891 C-303.80655477 707.87159194 -301.1542365 702.869251 -298.47851562 697.87890625 C-294.54424591 690.57420257 -290.52102331 683.3596888 -286.19946289 676.27758789 C-282.45354073 670.13727706 -278.94044928 663.87629489 -275.44580078 657.59033203 C-273.7984552 654.63060687 -272.14412 651.67482541 -270.49023438 648.71875 C-264.81522704 638.55770203 -259.1544259 628.39674844 -253.79101562 618.06640625 C-250.39925392 611.53905178 -246.85027802 605.1209793 -243.16601562 598.75390625 C-242.71323242 597.97080078 -242.26044922 597.18769531 -241.79394531 596.38085938 C-239.34019092 592.17704117 -236.75113466 588.11153107 -234.04101562 584.06640625 C-233.12023038 582.4764306 -232.22398103 580.87197857 -231.35351562 579.25390625 C-230.84820312 578.31675781 -230.34289062 577.37960937 -229.82226562 576.4140625 C-228.46404929 573.86144979 -227.10999712 571.30683323 -225.75976562 568.75 C-225.36233154 567.99759033 -224.96489746 567.24518066 -224.55541992 566.4699707 C-223.76870785 564.9785257 -222.98364846 563.48620748 -222.20043945 561.99291992 C-221.8345874 561.29787354 -221.46873535 560.60282715 -221.09179688 559.88671875 C-220.76864502 559.27070801 -220.44549316 558.65469727 -220.11254883 558.02001953 C-218.82086234 555.66502403 -217.42293799 553.36961019 -216.04101562 551.06640625 C-260.26101563 551.06640625 -304.48101562 551.06640625 -350.04101562 551.06640625 C-348.7506291 545.90486016 -346.04015798 544.51964679 -341.85351562 541.69140625 C-341.10392578 541.17392822 -340.35433594 540.6564502 -339.58203125 540.12329102 C-331.6540257 534.70145918 -323.53719581 529.57030428 -315.40820312 524.45703125 C-311.33018252 521.89105312 -307.2885049 519.27627867 -303.26220703 516.63012695 C-296.52434474 512.206492 -289.69192301 508.08644886 -282.6328125 504.19580078 C-278.88714439 502.12675621 -275.24992077 499.97264909 -271.66601562 497.62890625 C-266.97479506 494.57432203 -262.1361659 491.87597221 -257.22851562 489.19140625 C-241.54020352 480.98923058 -241.54020352 480.98923058 -228.69726562 469.12890625 C-226.68231776 466.61972589 -224.48929373 464.3558018 -222.22851562 462.06640625 C-221.47957031 461.30328125 -220.730625 460.54015625 -219.95898438 459.75390625 C-218.04101563 458.06640625 -218.04101563 458.06640625 -216.04101562 458.06640625 C-215.82832031 457.50308594 -215.615625 456.93976563 -215.39648438 456.359375 C-206.192847 440.79010947 -176.24360748 428.52317558 -159.65039062 423.9296875 C-143.145997 419.98220807 -126.74767813 418.27235858 -109.84399414 417.19311523 C-99.70232382 416.52173166 -89.99299635 415.09813692 -80.04101562 413.06640625 C-75.94233017 412.32472501 -71.83638233 411.63018336 -67.72851562 410.94140625 C-66.74818359 410.77253906 -65.76785156 410.60367187 -64.7578125 410.4296875 C-34.28702891 405.31430149 4.58698182 404.88040497 32.95898438 419.06640625 C32.95898438 420.05640625 32.95898438 421.04640625 32.95898438 422.06640625 C32.31687012 422.31173096 31.67475586 422.55705566 31.01318359 422.80981445 C0.88736335 434.39522801 -27.26028184 448.18427339 -51.83007812 469.33203125 C-54.80004462 471.88180381 -57.85116356 474.31881831 -60.91601562 476.75390625 C-62.62810405 478.18693181 -64.3367295 479.62411022 -66.04101562 481.06640625 C-66.80285156 481.65164063 -67.5646875 482.236875 -68.34960938 482.83984375 C-70.61913536 484.86604824 -71.77381587 486.28879341 -73.04101562 489.06640625 C-72.9367211 492.52258118 -72.9367211 492.52258118 -72.22851562 496.30859375 C-71.0620018 504.09088901 -70.7003999 511.68634241 -70.7253418 519.54858398 C-70.72852114 521.63252316 -70.70482843 523.71506033 -70.6796875 525.79882812 C-70.63523954 535.24641238 -71.80878892 543.87646458 -74.04101562 553.06640625 C-74.23445557 553.86361084 -74.42789551 554.66081543 -74.62719727 555.48217773 C-77.38364567 566.02718039 -81.87175747 575.51882933 -87.04101562 585.06640625 C-87.57726562 586.05769531 -88.11351562 587.04898438 -88.66601562 588.0703125 C-89.77315077 590.08014022 -90.89312173 592.07966681 -92.04101562 594.06640625 C-89.20553195 595.48414809 -86.83033289 595.19316748 -83.65792751 595.1950407 C-82.99211699 595.19679374 -82.32630646 595.19854678 -81.64031985 595.20035294 C-79.38726303 595.20504126 -77.13426995 595.20254017 -74.88121033 595.20011902 C-73.25817851 595.20198561 -71.63514714 595.20428571 -70.01211649 595.20698434 C-65.5344273 595.21312837 -61.0567567 595.21296568 -56.57906425 595.21178997 C-51.7559587 595.21158659 -46.93285922 595.21709893 -42.10975647 595.22184753 C-32.65005574 595.2301709 -23.19036124 595.23290321 -13.73065715 595.23345991 C-6.03681764 595.23393465 1.65701982 595.23598732 9.35085869 595.23916054 C31.16658842 595.24797479 52.98231322 595.25257917 74.79804475 595.25183006 C75.97529789 595.25179011 77.15255103 595.25175015 78.36547852 595.25170898 C79.54417168 595.2516681 80.72286485 595.25162722 81.937276 595.2515851 C101.00839232 595.2511793 120.07948883 595.26073025 139.15059943 595.27484735 C158.73499116 595.28922974 178.31937324 595.29611638 197.90377039 595.29525357 C208.89756158 595.29492206 219.89133205 595.29764884 230.88511848 595.30843163 C240.2539964 595.31756154 249.62284423 595.31969179 258.99172468 595.3129222 C263.76741907 595.30966841 268.54305583 595.30955862 273.31874466 595.31827545 C277.7020078 595.32619312 282.08516811 595.32465582 286.4684289 595.31599132 C288.0433588 595.31446773 289.61829657 595.31622873 291.19321717 595.3218514 C328.06813987 595.44464107 359.33147715 583.85525183 385.95898438 558.06640625 C408.72529151 534.53484509 418.36714395 502.17883644 417.92773438 470.015625 C416.99791713 446.51449414 409.13203222 421.96380338 394.95898438 403.06640625 C394.95898438 402.40640625 394.95898438 401.74640625 394.95898438 401.06640625 C394.36730469 400.81246094 393.775625 400.55851562 393.16601562 400.296875 C390.71588707 398.93087413 389.42302618 397.53704414 387.64648438 395.37890625 C367.82352662 372.13388 341.11412405 359.69049333 310.95898438 356.06640625 C292.82915768 354.95204338 274.37766771 357.88313001 256.67773438 361.61328125 C255.33195313 361.83757812 255.33195313 361.83757812 253.95898438 362.06640625 C252.36686474 360.47428662 252.81833607 358.81520935 252.80126953 356.60791016 C252.79086639 355.65311264 252.78046326 354.69831512 252.76974487 353.71458435 C252.76258453 352.6679512 252.75542419 351.62131805 252.74804688 350.54296875 C252.72247516 348.31468799 252.69607585 346.08641662 252.66894531 343.8581543 C252.65569214 342.68682953 252.64243896 341.51550476 252.62878418 340.3086853 C252.28543123 312.58527378 250.84848258 286.03559271 243.95898438 259.06640625 C243.71696289 258.11233887 243.47494141 257.15827148 243.22558594 256.17529297 C233.36334963 218.15427769 215.11207095 182.97817404 190.95898438 152.06640625 C190.06228027 150.90371216 190.06228027 150.90371216 189.14746094 149.7175293 C182.96534726 141.91336875 176.11189928 134.88012332 169.06689453 127.85864258 C167.085393 125.88031262 165.11765022 123.88896525 163.15039062 121.89648438 C156.17649619 114.88708504 149.21318072 108.5738239 140.95898438 103.06640625 C139.44833778 102.00086659 137.93916254 100.93323713 136.43164062 99.86328125 C94.25149924 70.56047778 49.07465523 52.66391052 -2.04101562 47.06640625 C-3.14340576 46.94144775 -3.14340576 46.94144775 -4.26806641 46.81396484 C-8.52345734 46.35619622 -12.76470558 46.1490265 -17.04101562 46.06640625 C-17.98702637 46.04594238 -18.93303711 46.02547852 -19.90771484 46.00439453 C-76.64086938 44.96444427 -130.80079377 58.03474345 -181.04101562 84.06640625 C-181.93369141 84.52837402 -182.82636719 84.9903418 -183.74609375 85.46630859 C-187.87339042 87.61518379 -191.97411605 89.80467626 -196.04101562 92.06640625 C-196.70101562 91.07640625 -197.36101562 90.08640625 -198.04101562 89.06640625 C-182.73572041 73.56680553 -182.73572041 73.56680553 -176.91992188 68.66796875 C-174.60813698 66.69742445 -172.39672136 64.62817136 -170.16601562 62.56640625 C-165.38089064 58.26630906 -160.40156403 54.61128503 -155.04101562 51.06640625 C-153.86373638 50.25940031 -152.68666805 49.45208663 -151.50976562 48.64453125 C-106.57913708 18.2596688 -54.04031095 1.75824935 0 0 Z M-168.35351562 470.31640625 C-170.50981327 473.83037278 -171.23448737 476.99576065 -171.04101562 481.06640625 C-169.48875192 486.24061859 -167.72780735 489.31546328 -163.04101562 492.06640625 C-158.41247385 493.82386008 -155.12292949 494.35491661 -150.29101562 493.06640625 C-145.99623996 490.42346738 -142.94070334 487.90752536 -141.37304688 482.95703125 C-140.50107875 477.94968957 -141.11912525 474.19351953 -143.68164062 469.796875 C-146.46870563 466.24897328 -149.64748494 464.51085295 -154.06054688 463.69140625 C-160.49488805 463.29771807 -163.94654948 466.0285473 -168.35351562 470.31640625 Z " fill="#C7C7C2" transform="translate(404.041015625,16.93359375)"/>
<path d="M0 0 C0 0.99 0 1.98 0 3 C-0.64211426 3.24532471 -1.28422852 3.49064941 -1.94580078 3.7434082 C-32.08631527 15.33447269 -60.19738906 29.13642368 -84.796875 50.265625 C-87.74032029 52.79110815 -90.73621832 55.24616847 -93.75 57.6875 C-94.62398438 58.42484375 -95.49796875 59.1621875 -96.3984375 59.921875 C-99 62 -99 62 -101.7890625 63.703125 C-104.65772347 65.62712118 -106.31578692 66.97027233 -108 70 C-107.88637557 73.5301936 -107.32378956 76.60740761 -106.54003906 80.03466797 C-99.99555609 109.46134229 -107.05065039 141.24830787 -122 167 C-127.28813559 175.28813559 -127.28813559 175.28813559 -130 178 C-131.57207829 178.04458297 -133.14618136 178.01971318 -134.71801758 177.96728516 C-135.72967484 177.93947968 -136.74133209 177.91167419 -137.78364563 177.88302612 C-138.89273788 177.85201813 -140.00183014 177.82101013 -141.14453125 177.7890625 C-177.84233309 176.78911822 -177.84233309 176.78911822 -210.17626953 191.99414062 C-214.71296531 195.21681852 -219.56708416 197.82179544 -224.4375 200.5 C-226.2997184 201.56077805 -228.16169456 202.62198145 -230.0234375 203.68359375 C-237.3926079 207.82082459 -244.91165926 211.66422334 -252.43005371 215.52035522 C-263.20776139 221.04852409 -273.87910254 226.74699176 -284.47753906 232.61230469 C-287.03673418 234.02020878 -289.60667634 235.40659266 -292.1796875 236.7890625 C-293.80737233 237.67172627 -295.43498028 238.55453183 -297.0625 239.4375 C-297.7949292 239.82655518 -298.5273584 240.21561035 -299.28198242 240.61645508 C-303.5291544 242.93907235 -306.66029689 245.42743686 -310 249 C-310.66 249.33 -311.32 249.66 -312 250 C-310.54553402 246.13372617 -308.76457108 242.58434604 -306.77734375 238.96484375 C-305.84631836 237.25651367 -305.84631836 237.25651367 -304.89648438 235.51367188 C-303.91491331 233.7200716 -302.93188844 231.92729075 -301.94702148 230.13549805 C-300.99074438 228.39323976 -300.04021832 226.64782878 -299.08984375 224.90234375 C-298.52128662 223.86585693 -297.95272949 222.82937012 -297.36694336 221.76147461 C-296.20179001 219.40765259 -295.60069172 217.51781303 -295 215 C-294.19019045 213.24960311 -293.33290633 211.52086066 -292.4453125 209.80859375 C-291.91800537 208.78999268 -291.39069824 207.7713916 -290.84741211 206.72192383 C-290.27901611 205.63806396 -289.71062012 204.5542041 -289.125 203.4375 C-288.54435791 202.32592529 -287.96371582 201.21435059 -287.36547852 200.0690918 C-281.06382052 188.09018706 -274.52560112 176.2567815 -267 165 C-266.07921475 163.41002435 -265.1829654 161.80557232 -264.3125 160.1875 C-263.8071875 159.25035156 -263.301875 158.31320312 -262.78125 157.34765625 C-261.42303367 154.79504354 -260.06898149 152.24042698 -258.71875 149.68359375 C-258.12259888 148.55497925 -258.12259888 148.55497925 -257.5144043 147.40356445 C-256.72769223 145.91211945 -255.94263284 144.41980123 -255.15942383 142.92651367 C-254.61064575 141.88394409 -254.61064575 141.88394409 -254.05078125 140.8203125 C-253.72762939 140.20430176 -253.40447754 139.58829102 -253.0715332 138.95361328 C-251.77984672 136.59861778 -250.38192236 134.30320394 -249 132 C-293.22 132 -337.44 132 -383 132 C-381.70961348 126.83845391 -378.99914235 125.45324054 -374.8125 122.625 C-374.06291016 122.10752197 -373.31332031 121.59004395 -372.54101562 121.05688477 C-364.61301007 115.63505293 -356.49618018 110.50389803 -348.3671875 105.390625 C-344.28916689 102.82464687 -340.24748927 100.20987242 -336.22119141 97.5637207 C-329.48332912 93.14008575 -322.65090739 89.02004261 -315.59179688 85.12939453 C-311.84612877 83.06034996 -308.20890514 80.90624284 -304.625 78.5625 C-299.93377944 75.50791578 -295.09515028 72.80956596 -290.1875 70.125 C-274.49918789 61.92282433 -274.49918789 61.92282433 -261.65625 50.0625 C-259.64130214 47.55331964 -257.44827811 45.28939555 -255.1875 43 C-254.43855469 42.236875 -253.68960938 41.47375 -252.91796875 40.6875 C-251 39 -251 39 -249 39 C-248.78730469 38.43667969 -248.57460937 37.87335938 -248.35546875 37.29296875 C-239.15183138 21.72370322 -209.20259186 9.45676933 -192.609375 4.86328125 C-176.10498137 0.91580182 -159.7066625 -0.79404767 -142.80297852 -1.87329102 C-132.6613082 -2.54467459 -122.95198072 -3.96826933 -113 -6 C-108.90131455 -6.74168124 -104.7953667 -7.43622289 -100.6875 -8.125 C-99.70716797 -8.29386719 -98.72683594 -8.46273438 -97.71679688 -8.63671875 C-67.24601328 -13.75210476 -28.37200255 -14.18600128 0 0 Z M-201.3125 51.25 C-203.46879764 54.76396653 -204.19347175 57.9293544 -204 62 C-202.4477363 67.17421234 -200.68679172 70.24905703 -196 73 C-191.37145823 74.75745383 -188.08191387 75.28851036 -183.25 74 C-178.95522434 71.35706113 -175.89968772 68.84111911 -174.33203125 63.890625 C-173.46006313 58.88328332 -174.07810962 55.12711328 -176.640625 50.73046875 C-179.42769001 47.18256703 -182.60646932 45.4444467 -187.01953125 44.625 C-193.45387242 44.23131182 -196.90553386 46.96214105 -201.3125 51.25 Z " fill="#E7D7C6" transform="translate(437,436)"/>
<path d="M0 0 C1.49926025 0.26490234 1.49926025 0.26490234 3.02880859 0.53515625 C26.31412544 4.73982808 48.81283871 12.51387577 70 23 C70.93859863 23.4630957 71.87719727 23.92619141 72.84423828 24.40332031 C84.46771361 30.18927895 95.71250422 36.25329286 106.296875 43.79101562 C108.02901968 45.02059998 109.77792076 46.22273683 111.53125 47.421875 C120.18468305 53.3972907 128.13249482 60.03339167 136 67 C136.87269531 67.76054688 137.74539063 68.52109375 138.64453125 69.3046875 C149.33463136 78.73408113 159.25759607 88.72880155 168 100 C169.00624078 101.26583939 170.01277109 102.53144865 171.01953125 103.796875 C199.52849035 139.96732244 218.74269515 182.71284355 227 228 C227.24556641 229.27520508 227.24556641 229.27520508 227.49609375 230.57617188 C230.07878502 244.41811642 230.26036207 258.21604361 230.25 272.25 C230.24940582 273.14499207 230.24881165 274.03998413 230.24819946 274.96209717 C230.18312069 300.63375862 230.18312069 300.63375862 228 305 C228.71542969 305.02505615 229.43085937 305.0501123 230.16796875 305.07592773 C233.4454547 305.19279152 236.72271616 305.31510423 240 305.4375 C241.68802734 305.49647461 241.68802734 305.49647461 243.41015625 305.55664062 C249.33161908 305.78172547 255.13522862 306.14472084 261 307 C261 307.33 261 307.66 261 308 C258.36 308 255.72 308 253 308 C251.7763932 310.0745356 251.7763932 310.0745356 252 313 C252.33 313.99 252.66 314.98 253 316 C253.40456663 319.71881083 253.55940784 323.45235846 253.75 327.1875 C253.81832031 328.20392578 253.88664062 329.22035156 253.95703125 330.26757812 C254.27996114 336.68063454 253.71275196 341.16198998 251 347 C252.26457031 346.95617187 253.52914063 346.91234375 254.83203125 346.8671875 C260.31027224 346.87361108 265.3699504 347.88031817 270.6875 349.125 C271.64414551 349.34438232 272.60079102 349.56376465 273.58642578 349.78979492 C281.50315647 351.69537851 288.70948354 354.37962408 296 358 C296 358.66 296 359.32 296 360 C291.65068265 359.43118976 287.71692084 358.32159171 283.58129883 356.93017578 C255.43767382 347.4638142 228.51291666 349.47868285 199.71875 355.546875 C198.37296875 355.77117187 198.37296875 355.77117187 197 356 C195.40788037 354.40788037 195.8593517 352.7488031 195.84228516 350.54150391 C195.83188202 349.58670639 195.82147888 348.63190887 195.8107605 347.6481781 C195.80360016 346.60154495 195.79643982 345.5549118 195.7890625 344.4765625 C195.76349079 342.24828174 195.73709147 340.02001037 195.70996094 337.79174805 C195.69670776 336.62042328 195.68345459 335.44909851 195.6697998 334.24227905 C195.32644686 306.51886753 193.88949821 279.96918646 187 253 C186.75797852 252.04593262 186.51595703 251.09186523 186.26660156 250.10888672 C176.40436525 212.08787144 158.15308658 176.91176779 134 146 C133.40219727 145.22487061 132.80439453 144.44974121 132.18847656 143.65112305 C126.00636289 135.8469625 119.15291491 128.81371707 112.10791016 121.79223633 C110.12640862 119.81390637 108.15866584 117.822559 106.19140625 115.83007812 C99.21751181 108.82067879 92.25419635 102.50741765 84 97 C82.4893534 95.93446034 80.98017816 94.86683088 79.47265625 93.796875 C37.29251486 64.49407153 -7.88432914 46.59750427 -59 41 C-60.10239014 40.8750415 -60.10239014 40.8750415 -61.22705078 40.74755859 C-65.48244171 40.28978997 -69.72368995 40.08262025 -74 40 C-74.94601074 39.97953613 -75.89202148 39.95907227 -76.86669922 39.93798828 C-133.59985376 38.89803802 -187.75977815 51.9683372 -238 78 C-238.89267578 78.46196777 -239.78535156 78.92393555 -240.70507812 79.39990234 C-244.8323748 81.54877754 -248.93310042 83.73827001 -253 86 C-253.66 85.01 -254.32 84.02 -255 83 C-239.69470478 67.50039928 -239.69470478 67.50039928 -233.87890625 62.6015625 C-231.56712135 60.6310182 -229.35570573 58.56176511 -227.125 56.5 C-222.33987501 52.19990281 -217.3605484 48.54487878 -212 45 C-210.82272075 44.19299406 -209.64565242 43.38568038 -208.46875 42.578125 C-199.91836827 36.79810949 -191.07507749 31.73451099 -181.9375 26.9375 C-180.34989868 26.09711182 -180.34989868 26.09711182 -178.73022461 25.23974609 C-173.89605154 22.74654444 -169.43951005 20.6374258 -164.11254883 19.53149414 C-159.21061994 18.29822254 -154.55751598 16.129179 -149.875 14.25 C-102.36789155 -4.3475758 -50.16211157 -9.23294694 0 0 Z " fill="#E7D8C6" transform="translate(461,23)"/>
<path d="M0 0 C1.01755371 0.30599121 1.01755371 0.30599121 2.05566406 0.61816406 C21.63612618 6.59855327 42.14676077 18.13330649 58 31 C58.58378418 31.47002441 59.16756836 31.94004883 59.76904297 32.42431641 C67.34755787 38.56824821 75.27791286 45.02238115 81 53 C81 53.99 81 54.98 81 56 C77.06649847 54.77471714 73.55821979 53.33007946 69.9375 51.375 C21.8335215 27.05609595 -34.44407654 23.2981546 -85.47509766 40.03369141 C-99.51003707 44.84989167 -113.17571088 50.97570255 -125 60 C-126.68624329 61.16493145 -128.37260203 62.32969981 -130.06103516 63.49145508 C-136.6394275 68.05560212 -142.57746283 73.02877767 -148.3828125 78.53515625 C-150.47592722 80.50643295 -152.5913117 82.3661256 -154.8125 84.1875 C-157.86418014 86.76628055 -160.44893989 89.63625058 -163.03125 92.6796875 C-164.17990157 94.03345543 -165.34194 95.37646017 -166.53564453 96.69067383 C-196.84028859 130.32452482 -214.89382999 180.73832802 -213 226 C-212.70674514 230.05517574 -212.28246848 234.08676365 -211.8125 238.125 C-211.68375488 239.24430908 -211.55500977 240.36361816 -211.42236328 241.5168457 C-210.20315182 251.46815301 -208.27185956 261.20201444 -206.0859375 270.98046875 C-205.19333457 274.97774504 -204.50584273 278.9363967 -204 283 C-207.00888604 282.70044276 -207.88886943 282.13330999 -209.859375 279.76953125 C-211.9318909 276.52801361 -213.98959463 273.2802807 -216 270 C-216.66515625 268.94167969 -217.3303125 267.88335938 -218.015625 266.79296875 C-230.07235916 246.78543549 -237.55229503 223.20551463 -240 200 C-240.10957031 199.07960938 -240.21914062 198.15921875 -240.33203125 197.2109375 C-243.31017697 167.11181143 -240.08520206 136.25391805 -229 108 C-228.71737305 107.27200195 -228.43474609 106.54400391 -228.14355469 105.79394531 C-220.65053022 86.9240774 -209.61745118 69.08960807 -196 54 C-195.12988281 53.01128906 -194.25976562 52.02257812 -193.36328125 51.00390625 C-178.57378644 34.36474903 -160.8747256 21.01148968 -141 11 C-140.18047852 10.58621094 -139.36095703 10.17242187 -138.51660156 9.74609375 C-95.13431206 -11.80832521 -46.03048344 -14.50940594 0 0 Z " fill="#E7D8C7" transform="translate(257,250)"/>
<path d="M0 0 C0.72848145 0.35465332 1.45696289 0.70930664 2.20751953 1.07470703 C12.52661774 6.15991105 21.85316838 12.04226879 31 19 C32.10006288 19.82318072 33.20032223 20.64609894 34.30078125 21.46875 C48.69370737 32.31120635 61.94037328 43.68516322 73 58 C73.82614788 59.04740779 74.65299972 60.09426062 75.48046875 61.140625 C80.75398271 67.84909512 85.58585854 74.68541603 90 82 C90.4441626 82.71841064 90.8883252 83.43682129 91.34594727 84.17700195 C105.77434763 107.75228847 114.31600646 132.86864484 119 160 C119.13277344 160.76812012 119.26554687 161.53624023 119.40234375 162.32763672 C121.10037834 172.76625669 121.19644534 183.2583059 121.25 193.8125 C121.25942627 195.13137207 121.26885254 196.45024414 121.27856445 197.80908203 C121.27429443 199.05415527 121.27002441 200.29922852 121.265625 201.58203125 C121.26336914 202.69811768 121.26111328 203.8142041 121.25878906 204.96411133 C120.99790406 208.02458779 120.29639399 210.23309357 119 213 C118.34 213 117.68 213 117 213 C116.76216797 211.94039063 116.76216797 211.94039063 116.51953125 210.859375 C115.69557738 207.23579885 114.8501127 203.61750085 114 200 C113.82307617 199.23945313 113.64615234 198.47890625 113.46386719 197.6953125 C110.68277709 185.82164285 107.44145222 174.35903569 103 163 C102.61521484 161.989375 102.23042969 160.97875 101.83398438 159.9375 C94.70722737 141.42307208 85.77698985 125.98223415 74 110 C72.87629313 108.43713972 71.75378725 106.87341482 70.6328125 105.30859375 C64.61767372 97.00707138 58.11738994 89.37847442 51 82 C50.38769531 81.34773438 49.77539062 80.69546875 49.14453125 80.0234375 C44.65448916 75.3520873 39.66581119 71.33168983 34.60693359 67.29492188 C32.89658907 65.91666794 31.20761034 64.51479251 29.51953125 63.109375 C16.65909642 52.48300103 2.99854173 44.08379515 -12.05615234 36.92919922 C-13.94925518 36.02425707 -15.82861098 35.09512334 -17.70703125 34.16015625 C-69.98427288 8.47105978 -132.77118533 6.91356045 -187.4375 25.41796875 C-188.95843407 25.94502189 -190.47926745 26.4723657 -192 27 C-192.76054687 27.25475098 -193.52109375 27.50950195 -194.3046875 27.77197266 C-219.19879544 36.12763389 -244.29998617 48.49538147 -264 66 C-265.6997563 67.36491709 -267.40783267 68.71955306 -269.125 70.0625 C-275.00620194 74.73510542 -280.68677117 79.68677117 -286 85 C-286.99 85 -287.98 85 -289 85 C-284.75710296 61.71710249 -247.17954644 32.8650426 -229 20 C-222.79236391 15.79784439 -216.4294625 11.85211086 -210 8 C-209.36900391 7.62101562 -208.73800781 7.24203125 -208.08789062 6.8515625 C-189.58134381 -4.07572152 -168.83136151 -11.08718506 -148 -16 C-147.31292969 -16.16580566 -146.62585938 -16.33161133 -145.91796875 -16.50244141 C-98.40338093 -27.76417289 -43.73916351 -21.40593296 0 0 Z " fill="#E6D8C6" transform="translate(417,117)"/>
<path d="M0 0 C47.15546114 -1.39927184 93.10534956 9.64446266 134.95898438 31.06640625 C136.33231934 31.76854248 136.33231934 31.76854248 137.73339844 32.48486328 C154.84841251 41.32614257 170.28653741 51.57786396 184.95898438 64.06640625 C185.97476562 64.89785156 186.99054688 65.72929688 188.03710938 66.5859375 C203.62420983 79.4568243 217.954497 93.79586138 229.95898438 110.06640625 C230.76980469 111.0821875 231.580625 112.09796875 232.41601562 113.14453125 C242.95255086 126.35253447 251.77038044 140.69022916 258.96728516 155.96826172 C260.04080223 158.23950883 261.13743285 160.49874183 262.23632812 162.7578125 C280.12709958 199.7191712 289.0061286 238.38839515 289.20898438 279.44140625 C289.21841064 280.76027832 289.22783691 282.07915039 289.23754883 283.43798828 C289.207533 292.48917707 288.3596773 301.14057835 286.95898438 310.06640625 C288.19648437 310.03160156 289.43398438 309.99679687 290.70898438 309.9609375 C310.81589884 309.57358544 336.94304827 309.77835853 354.95898438 320.06640625 C350.91567264 321.41417683 348.17640643 320.0546558 344.27148438 318.81640625 C325.14543901 313.16050834 304.75369459 312.47273962 284.95898438 311.06640625 C285.02827148 310.3585498 285.09755859 309.65069336 285.16894531 308.92138672 C286.07196782 298.6780264 286.20209529 288.46922112 286.20898438 278.19140625 C286.20965912 277.28255676 286.21033386 276.37370728 286.21102905 275.43731689 C286.19454308 261.42855488 285.59022542 247.85801136 282.95898438 234.06640625 C282.80333008 233.18098145 282.64767578 232.29555664 282.48730469 231.38330078 C278.31265762 207.91445154 270.55025436 184.42272354 259.95898438 163.06640625 C259.53423828 162.19532227 259.10949219 161.32423828 258.671875 160.42675781 C248.89925455 140.51624972 237.13258215 122.12778528 222.95898438 105.06640625 C222.26820801 104.22335938 222.26820801 104.22335938 221.56347656 103.36328125 C210.58986833 90.00541407 198.62777649 77.68275743 184.95898438 67.06640625 C183.9052747 66.21294153 182.85327107 65.35736735 181.80273438 64.5 C166.01767403 51.70497003 148.99947068 41.36822144 130.95898438 32.06640625 C130.15879883 31.65261719 129.35861328 31.23882812 128.53417969 30.8125 C99.30898411 15.88585144 68.32594735 8.3716404 35.95898438 4.06640625 C34.69094971 3.88988525 33.42291504 3.71336426 32.11645508 3.53149414 C28.03034673 3.02680561 23.96395302 2.88911134 19.84960938 2.86328125 C19.09353897 2.85622162 18.33746857 2.84916199 17.55848694 2.84188843 C-22.84165978 2.55160897 -60.41348576 8.56998524 -98.10302734 23.43896484 C-98.93592285 23.76590332 -99.76881836 24.0928418 -100.62695312 24.4296875 C-101.35962402 24.72141846 -102.09229492 25.01314941 -102.84716797 25.3137207 C-105.223517 26.12902051 -107.57029408 26.62460544 -110.04101562 27.06640625 C-83.8844892 4.53691816 -32.82495053 1.06798882 0 0 Z " fill="#CBBEAE" transform="translate(404.041015625,16.93359375)"/>
<path d="M0 0 C-3.34520258 1.93242285 -6.44767482 2.5463853 -10.25 3.125 C-11.32765625 3.29257812 -12.4053125 3.46015625 -13.515625 3.6328125 C-14.33546875 3.75398437 -15.1553125 3.87515625 -16 4 C-16 4.33 -16 4.66 -16 5 C-51.00595607 5.02306926 -86.01191036 5.04059987 -121.01787243 5.05106533 C-125.18427825 5.0523155 -129.35068405 5.05360988 -133.51708984 5.05493164 C-134.34627845 5.05519395 -135.17546705 5.05545626 -136.02978258 5.05572652 C-149.32081545 5.06003561 -162.61184383 5.06789586 -175.90287407 5.0771528 C-189.61922507 5.08662372 -203.33557379 5.09208345 -217.05192792 5.09408849 C-224.72306507 5.0953178 -232.39419292 5.09820865 -240.06532669 5.10573006 C-274.55089147 5.13854637 -309.0141274 4.91211419 -343.4935894 4.17331696 C-356.54422864 3.89708762 -369.59532704 3.77982324 -382.6484375 3.68359375 C-385.17200924 3.66284426 -387.69557895 3.64184605 -390.21914673 3.62062073 C-396.63977323 3.56724404 -403.06042023 3.51708006 -409.4810791 3.46777344 C-416.12151765 3.41614709 -422.76192899 3.36122324 -429.40234375 3.30664062 C-442.26820551 3.20134046 -455.13409095 3.09934703 -468 3 C-468 2.67 -468 2.34 -468 2 C-467.05410655 1.99826375 -466.10821309 1.9965275 -465.1336562 1.99473864 C-409.07638568 1.89175545 -353.01912705 1.78360883 -296.96187926 1.66888306 C-290.23150358 1.65511011 -283.50112779 1.64138521 -276.77075195 1.62768555 C-276.10100593 1.62632146 -275.43125991 1.62495738 -274.74121856 1.62355196 C-253.04079831 1.57937684 -231.34037348 1.53837243 -209.63994399 1.49901587 C-186.7035449 1.45740047 -163.76715486 1.41216457 -140.83077031 1.36312145 C-127.09292687 1.33386362 -113.3550841 1.30749584 -99.61722819 1.28482103 C-90.19757019 1.26899697 -80.77792389 1.24957793 -71.35827889 1.22733159 C-65.92312663 1.21460158 -60.48798329 1.20345695 -55.05282021 1.19658089 C-50.07397418 1.1902471 -45.09515905 1.17938501 -40.11633006 1.1649667 C-38.31803389 1.16055019 -36.51973275 1.15777575 -34.7214314 1.15683801 C-26.52172747 1.1517455 -18.37865001 1.14313398 -10.21824342 0.21929115 C-6.8021903 -0.11841309 -3.42975699 -0.0647124 0 0 Z " fill="#D5D5CE" transform="translate(734,652)"/>
<path d="M0 0 C0.68191406 0.60070312 1.36382812 1.20140625 2.06640625 1.8203125 C-2.14294018 1.15692582 -5.70957703 -0.2600852 -9.62109375 -1.9296875 C-30.68610107 -10.60690762 -53.0408084 -14.40953357 -75.74609375 -14.4296875 C-76.43200592 -14.43036224 -77.11791809 -14.43103699 -77.82461548 -14.43173218 C-89.41823927 -14.41369169 -100.5812728 -13.62873817 -111.93359375 -11.1796875 C-112.76391113 -11.00276367 -113.59422852 -10.82583984 -114.44970703 -10.64355469 C-147.11937962 -3.48798804 -177.65072835 11.6964599 -201.50292969 35.40429688 C-202.92107753 36.80792443 -204.36872122 38.18154452 -205.81640625 39.5546875 C-236.21906139 68.85641084 -256.14630324 113.11782957 -257.10293579 155.41624451 C-257.1616129 158.96764078 -257.18071555 162.51846567 -257.18359375 166.0703125 C-257.18426849 166.82120148 -257.18494324 167.57209045 -257.18563843 168.34573364 C-257.14753353 195.15128178 -251.63375916 218.82578055 -241.76806641 243.66259766 C-240.7279277 246.35210785 -239.80763256 249.07269306 -238.93359375 251.8203125 C-239.59359375 251.8203125 -240.25359375 251.8203125 -240.93359375 251.8203125 C-250.19281363 232.77277447 -256.31976633 212.85639561 -258.93359375 191.8203125 C-259.06378906 190.79164063 -259.19398438 189.76296875 -259.328125 188.703125 C-262.30601324 158.76542186 -258.95343497 127.90763911 -247.93359375 99.8203125 C-247.6509668 99.09231445 -247.36833984 98.36431641 -247.07714844 97.61425781 C-239.58412397 78.7443899 -228.55104493 60.90992057 -214.93359375 45.8203125 C-214.06347656 44.83160156 -213.19335938 43.84289062 -212.296875 42.82421875 C-197.50738019 26.18506153 -179.80831935 12.83180218 -159.93359375 2.8203125 C-159.11407227 2.40652344 -158.29455078 1.99273437 -157.45019531 1.56640625 C-114.96818084 -19.54071254 -41.30354379 -30.68891802 0 0 Z " fill="#CCBEAD" transform="translate(275.93359375,258.1796875)"/>
<path d="M0 0 C0.72848145 0.35465332 1.45696289 0.70930664 2.20751953 1.07470703 C12.52661774 6.15991105 21.85316838 12.04226879 31 19 C32.10006288 19.82318072 33.20032223 20.64609894 34.30078125 21.46875 C48.30704086 32.01992335 63.16578717 43.27483558 73 58 C73 58.99 73 59.98 73 61 C72.59797363 60.56768066 72.19594727 60.13536133 71.78173828 59.68994141 C67.20663706 54.77546036 62.60968833 49.882041 58 45 C56.64841797 43.56333984 56.64841797 43.56333984 55.26953125 42.09765625 C48.7257992 35.3347037 41.50073512 29.64630177 34 24 C33.04867188 23.27683594 32.09734375 22.55367187 31.1171875 21.80859375 C12.97790884 8.2966821 -8.08500587 -3.08279908 -30 -9 C-30.85319824 -9.23912109 -31.70639648 -9.47824219 -32.58544922 -9.72460938 C-54.03278109 -15.6811802 -74.54136204 -18.25598073 -96.75 -18.3125 C-97.56308624 -18.31626648 -98.37617249 -18.32003296 -99.21389771 -18.32391357 C-115.67546024 -18.36256989 -131.89669238 -17.19325746 -147.9375 -13.3125 C-149.03884277 -13.04977295 -150.14018555 -12.7870459 -151.27490234 -12.51635742 C-197.9749758 -1.02912735 -241.4371577 25.61727005 -271.61376953 63.27539062 C-273.81986152 66.01998975 -276.04473327 68.74927952 -278.26708984 71.48071289 C-280.84710431 74.65187835 -283.42352435 77.82595923 -286 81 C-286 73.09010974 -276.26791753 64.87878566 -271.140625 59.32421875 C-269.27149188 57.29477676 -267.47335345 55.22727894 -265.6875 53.125 C-258.46477753 44.8440647 -250.51228791 36.94912232 -242 30 C-241.10539062 29.26652344 -240.21078125 28.53304687 -239.2890625 27.77734375 C-230.0172379 20.40892898 -220.15303753 14.08303201 -210 8 C-209.36900391 7.62101562 -208.73800781 7.24203125 -208.08789062 6.8515625 C-189.58134381 -4.07572152 -168.83136151 -11.08718506 -148 -16 C-147.31292969 -16.16580566 -146.62585938 -16.33161133 -145.91796875 -16.50244141 C-98.40338093 -27.76417289 -43.73916351 -21.40593296 0 0 Z " fill="#D0C3B3" transform="translate(417,117)"/>
<path d="M0 0 C0 0.99 0 1.98 0 3 C0.31688774 5.38545545 0.64556562 7.76935079 0.98046875 10.15234375 C2.00426297 17.9453537 2.34059143 25.62759722 2.31567383 33.48217773 C2.31249448 35.56611691 2.3361872 37.64865408 2.36132812 39.73242188 C2.40577609 49.18000613 1.23222671 57.81005833 -1 67 C-1.19343994 67.79720459 -1.38687988 68.59440918 -1.58618164 69.41577148 C-4.34263004 79.96077414 -8.83074184 89.45242308 -14 99 C-14.53625 99.99128906 -15.0725 100.98257813 -15.625 102.00390625 C-16.73213515 104.01373397 -17.8521061 106.01326056 -19 108 C-16.16417016 109.41791492 -13.78967966 109.12540936 -10.61691189 109.12584114 C-9.6181961 109.1280213 -9.6181961 109.1280213 -8.59930423 109.13024551 C-6.34624529 109.13392345 -4.09325325 109.13041075 -1.8401947 109.12698364 C-0.21716307 109.12813478 1.40586831 109.12972226 3.02889913 109.13171089 C7.50659024 109.13590584 11.98426017 109.1338127 16.46195138 109.13072467 C21.28505547 109.12847119 26.1081558 109.13195011 30.93125916 109.13470459 C40.39096146 109.13916335 49.85065585 109.13818491 59.31035847 109.13529195 C67.00419775 109.13303633 74.6980348 109.13272609 82.39187431 109.13381577 C83.48573809 109.133969 84.57960188 109.13412223 85.70661305 109.13428011 C87.92876455 109.13459983 90.15091605 109.13492405 92.37306755 109.1352527 C113.24147728 109.13810831 134.10988262 109.13482024 154.97829162 109.12945233 C172.86484311 109.12499359 190.75138809 109.12575238 208.63793945 109.13037109 C229.40688939 109.1357316 250.17583548 109.13782373 270.94478601 109.13475883 C273.16348708 109.13444029 275.38218814 109.13412592 277.60088921 109.13381577 C278.69249479 109.13366149 279.78410037 109.13350721 280.90878491 109.13334826 C288.58123559 109.13248684 296.25368381 109.13393812 303.92613411 109.13629532 C313.29500595 109.13911032 322.66386941 109.13831971 332.0327403 109.13301457 C336.80841831 109.13039899 341.5840824 109.12933577 346.35976028 109.13266373 C350.74299804 109.13567175 355.12620915 109.13395984 359.50944453 109.12868617 C361.08437368 109.12758091 362.65930515 109.12811042 364.23423279 109.13056196 C374.8581767 109.14581336 385.40087428 108.72823646 396 108 C396 108.33 396 108.66 396 109 C385.56541141 110.81881694 375.46197424 111.28166789 364.90310669 111.24050903 C363.21635431 111.24138303 361.5296022 111.24313756 359.84285152 111.24568737 C355.24540801 111.25012684 350.64805896 111.24220442 346.05062747 111.23213124 C341.07877546 111.22344962 336.10692826 111.22642022 331.1350708 111.22793579 C322.533446 111.22898167 313.93185167 111.22273616 305.33023453 111.21146011 C292.89392629 111.19516775 280.45763271 111.18999329 268.02131496 111.18748413 C247.84151283 111.18311288 227.66172692 111.16981927 207.48193359 111.15087891 C187.88558025 111.13250533 168.28923132 111.11835606 148.69287109 111.10986328 C147.48382902 111.10933783 146.27478694 111.10881239 145.02910723 111.10827102 C138.96336321 111.10566084 132.89761916 111.10313345 126.83187509 111.10064721 C76.55457218 111.07993247 26.27728689 111.04472249 -24 111 C-23.52047379 110.25166397 -23.04094757 109.50332794 -22.54689026 108.73231506 C-21.91725876 107.7469426 -21.28762726 106.76157013 -20.63891602 105.74633789 C-20.0150148 104.77112686 -19.39111359 103.79591583 -18.74830627 102.79115295 C-1.59762013 75.41025923 4.57695492 42.20060662 -1.6875 10.4375 C-1.85523926 9.71248291 -2.02297852 8.98746582 -2.19580078 8.24047852 C-2.63671875 6.24609375 -2.63671875 6.24609375 -3 3 C-1.58203125 1.03515625 -1.58203125 1.03515625 0 0 Z " fill="#BDBAB0" transform="translate(331,503)"/>
<path d="M0 0 C12.16343195 18.24514792 12.08407319 48.8011969 14 70 C14.33 70 14.66 70 15 70 C15.33 84.19 15.66 98.38 16 113 C21.28 112.01 26.56 111.02 32 110 C35.18012059 109.54948292 38.31069181 109.12614907 41.5 108.8125 C42.68916016 108.69515503 42.68916016 108.69515503 43.90234375 108.57543945 C67.76813713 106.3869462 90.09741916 110.21203347 112 120 C112 120.66 112 121.32 112 122 C107.65068265 121.43118976 103.71692084 120.32159171 99.58129883 118.93017578 C71.43767382 109.4638142 44.51291666 111.47868285 15.71875 117.546875 C14.8215625 117.69640625 13.924375 117.8459375 13 118 C11.40788037 116.40788037 11.8593517 114.7488031 11.84228516 112.54150391 C11.83188202 111.58670639 11.82147888 110.63190887 11.8107605 109.6481781 C11.80360016 108.60154495 11.79643982 107.5549118 11.7890625 106.4765625 C11.76349079 104.24828174 11.73709147 102.02001037 11.70996094 99.79174805 C11.69670776 98.62042328 11.68345459 97.44909851 11.6697998 96.24227905 C11.28800663 65.41508058 9.21983086 36.17397766 0.56835938 6.42773438 C0 4 0 4 0 0 Z " fill="#D9CFBF" transform="translate(645,261)"/>
<path d="M0 0 C0 0.33 0 0.66 0 1 C-5.45775716 0.52213186 -10.8391484 -0.13188461 -16.24609375 -1.01953125 C-24.81567732 -2.25017375 -33.29197992 -2.35192316 -41.9375 -2.3125 C-42.74814911 -2.31100952 -43.55879822 -2.30951904 -44.39401245 -2.3079834 C-59.29193905 -2.25890538 -73.86033869 -1.33720206 -88.4296875 1.984375 C-101.94580052 5.04767195 -115.40321464 6.03717224 -129.21069336 6.87304688 C-143.71506664 7.77983005 -158.19047458 9.35645788 -172.125 13.6875 C-172.95064453 13.94023682 -173.77628906 14.19297363 -174.62695312 14.45336914 C-182.89052863 17.09895379 -190.43095408 20.80057652 -198 25 C-199.05574219 25.56589844 -200.11148438 26.13179688 -201.19921875 26.71484375 C-209.50190315 31.32744619 -218.08650717 36.94360917 -224.74609375 43.796875 C-226 45 -226 45 -228 45 C-223.10741134 32.04205306 -199.06092755 22.1605864 -187.18530273 16.67626953 C-166.46727398 7.41232071 -144.18531653 5.55574596 -121.80297852 4.12670898 C-111.6613082 3.45532541 -101.95198072 2.03173067 -92 0 C-87.90131455 -0.74168124 -83.7953667 -1.43622289 -79.6875 -2.125 C-78.70716797 -2.29386719 -77.72683594 -2.46273438 -76.71679688 -2.63671875 C-52.55033338 -6.69374567 -23.39601791 -8.62353224 0 0 Z " fill="#D2C6B7" transform="translate(416,430)"/>
<path d="M0 0 C1.0974353 -0.00447144 1.0974353 -0.00447144 2.21704102 -0.0090332 C5.46665394 -0.00726845 8.71542463 0.01919627 11.96484375 0.0546875 C11.96484375 0.3846875 11.96484375 0.7146875 11.96484375 1.0546875 C11.31338379 1.11414551 10.66192383 1.17360352 9.99072266 1.23486328 C-48.53680961 6.77828732 -106.14886441 30.74068539 -145.0078125 76.37109375 C-146.90307688 78.67911988 -148.78141343 80.99956449 -150.64892578 83.33007812 C-152.85501777 86.07467725 -155.07988952 88.80396702 -157.30224609 91.53540039 C-159.88226056 94.70656585 -162.4586806 97.88064673 -165.03515625 101.0546875 C-165.03515625 93.14479724 -155.30307378 84.93347316 -150.17578125 79.37890625 C-148.30664813 77.34946426 -146.5085097 75.28196644 -144.72265625 73.1796875 C-137.49993378 64.8987522 -129.54744416 57.00380982 -121.03515625 50.0546875 C-120.14054687 49.32121094 -119.2459375 48.58773437 -118.32421875 47.83203125 C-109.05239415 40.46361648 -99.18819378 34.13771951 -89.03515625 28.0546875 C-88.40416016 27.67570312 -87.77316406 27.29671875 -87.12304688 26.90625 C-64.2631736 13.40852238 -38.07211165 5.54497324 -12.03515625 1.0546875 C-10.73578125 0.8278125 -9.43640625 0.6009375 -8.09765625 0.3671875 C-5.39297712 0.10568627 -2.71650294 0.01103874 0 0 Z " fill="#C7BBAB" transform="translate(296.03515625,96.9453125)"/>
<path d="M0 0 C18.60191889 17.31902793 26.09312021 52.10878729 27.16113281 76.71191406 C27.54761691 111.72018262 27.54761691 111.72018262 24 127 C23.80664062 127.83708496 23.61328125 128.67416992 23.4140625 129.53662109 C17.19303722 155.40475784 4.87439084 179.24409433 -13 199 C-13 195.24048387 -12.12809042 194.71067589 -9.6875 191.9375 C17.64799987 158.651086 28.16923434 114.47386521 24.3125 72.125 C21.85773086 48.70764414 14.22289918 26.77582087 2.78515625 6.2734375 C1 3 1 3 0 0 Z " fill="#B4B4AC" transform="translate(840,402)"/>
<path d="M0 0 C2.42906667 0.00187237 4.85813374 0.00329238 7.28720093 0.00428772 C13.58332419 0.00804856 19.87942322 0.01782124 26.17553711 0.0289917 C32.63915682 0.03934678 39.10278058 0.04381507 45.56640625 0.04882812 C58.17709349 0.05945147 70.78776419 0.07624625 83.3984375 0.09765625 C82.4481954 2.00811248 81.49679932 3.91799477 80.54492188 5.82763672 C80.01523804 6.89126434 79.4855542 7.95489197 78.93981934 9.05075073 C77.02556588 12.83472513 74.99873713 16.53962572 72.8984375 20.22265625 C72.51824463 20.89425781 72.13805176 21.56585937 71.74633789 22.2578125 C68.71648549 27.58963636 65.60346671 32.86905958 62.3984375 38.09765625 C62.0684375 37.43765625 61.7384375 36.77765625 61.3984375 36.09765625 C62.296875 34.09375 62.296875 34.09375 63.7734375 31.53515625 C67.04261921 25.75475299 70.15513743 19.90623646 73.23779297 14.02514648 C73.60404785 13.32977783 73.97030273 12.63440918 74.34765625 11.91796875 C74.83238403 10.99395264 74.83238403 10.99395264 75.3269043 10.05126953 C76.61859078 7.69627403 78.01651514 5.40086019 79.3984375 3.09765625 C35.8384375 2.76765625 -7.7215625 2.43765625 -52.6015625 2.09765625 C-52.6015625 1.76765625 -52.6015625 1.43765625 -52.6015625 1.09765625 C-35.05799283 0.29175299 -17.56063476 -0.04072967 0 0 Z " fill="#DFD1C0" transform="translate(108.6015625,564.90234375)"/>
<path d="M0 0 C0.66 0.33 1.32 0.66 2 1 C-4.99581611 14.12261581 -12.03226101 27.20689398 -19.45800781 40.0925293 C-23.36026931 46.86482041 -27.19065123 53.67504699 -31 60.5 C-37.25988837 71.70904199 -43.60547864 82.86728389 -50 94 C-47.60277878 92.81523727 -45.20701656 91.6277108 -42.8125 90.4375 C-42.09304199 90.08051025 -41.37358398 89.72352051 -40.63232422 89.35571289 C-34.81617537 86.45148598 -29.1323185 83.35914337 -23.4765625 80.15234375 C-22.65929687 79.77207031 -21.84203125 79.39179687 -21 79 C-20.34 79.33 -19.68 79.66 -19 80 C-26.23055367 84.61497947 -33.56155836 88.9527032 -41.125 93 C-42.22606079 93.59639282 -42.22606079 93.59639282 -43.34936523 94.20483398 C-48.63843295 97 -48.63843295 97 -52 97 C-51.48753121 91.516584 -49.46994103 87.7763035 -46.75 83.125 C-45.83822707 81.52826583 -44.92816135 79.93055595 -44.01953125 78.33203125 C-43.53178223 77.47689941 -43.0440332 76.62176758 -42.54150391 75.74072266 C-39.76553915 70.80518569 -37.11322087 65.80284475 -34.4375 60.8125 C-30.50688952 53.51459037 -26.49018175 46.30464459 -22.16943359 39.23095703 C-17.9162947 32.2647098 -13.96368081 25.13366727 -10 18 C-9.07031724 16.32942445 -8.14062956 14.65885163 -7.2109375 12.98828125 C-4.80400647 8.66067212 -2.4010338 4.33088352 0 0 Z " fill="#BFBBAF" transform="translate(140,654)"/>
<path d="M0 0 C16.6231164 6.04203688 31.42212645 20.94233988 44 33 C44.94746094 33.89460938 45.89492188 34.78921875 46.87109375 35.7109375 C54.00765724 42.61467693 60.06000539 50.07723893 66 58 C66.48033691 58.63550781 66.96067383 59.27101562 67.45556641 59.92578125 C80.30495071 76.9615641 80.30495071 76.9615641 83 83 C82.67 83.66 82.34 84.32 82 85 C77.76632547 79.24358695 73.60472828 73.45504404 69.5625 67.5625 C62.04352561 56.66361365 54.125674 46.57219016 45 37 C44.38382812 36.34257812 43.76765625 35.68515625 43.1328125 35.0078125 C38.6476634 30.35098305 33.67188886 26.33322455 28.62451172 22.30371094 C26.86683145 20.89312893 25.12257957 19.46691627 23.37890625 18.0390625 C16.49911926 12.43390065 9.59208524 7.19496333 2.09765625 2.42578125 C1.40542969 1.95527344 0.71320313 1.48476562 0 1 C0 0.67 0 0.34 0 0 Z " fill="#D5C8B3" transform="translate(423,162)"/>
<path d="M0 0 C1.68802734 0.01353516 1.68802734 0.01353516 3.41015625 0.02734375 C4.24417969 0.03894531 5.07820313 0.05054688 5.9375 0.0625 C5.9375 0.3925 5.9375 0.7225 5.9375 1.0625 C5.21908936 1.13243164 4.50067871 1.20236328 3.76049805 1.27441406 C-31.24311607 4.74713884 -69.15194539 11.81553806 -94.63500977 38.72290039 C-96.0625 40.0625 -96.0625 40.0625 -98.0625 40.0625 C-93.16991134 27.10455306 -69.12342755 17.2230864 -57.24780273 11.73876953 C-39.81725737 3.94480023 -19.14387582 -0.20151448 0 0 Z " fill="#C9BBAB" transform="translate(286.0625,434.9375)"/>
<path d="M0 0 C-0.91942383 0.46672119 -0.91942383 0.46672119 -1.85742188 0.94287109 C-29.75696673 15.15870126 -53.95390512 31.35705102 -76.62060547 52.96166992 C-77.26271973 53.57244385 -77.90483398 54.18321777 -78.56640625 54.8125 C-79.13302979 55.35519531 -79.69965332 55.89789063 -80.28344727 56.45703125 C-82.10852449 58.0975501 -84.01741921 59.5555599 -86 61 C-84.40584497 57.08790692 -81.86106668 54.62781914 -78.875 51.6875 C-78.13358765 50.95684326 -78.13358765 50.95684326 -77.37719727 50.21142578 C-74.02469305 46.93228646 -70.58953223 43.7814144 -67.01953125 40.7421875 C-64.66974951 38.71510306 -62.4044626 36.60575549 -60.125 34.5 C-55.33987501 30.19990281 -50.3605484 26.54487878 -45 23 C-43.82272075 22.19299406 -42.64565242 21.38568038 -41.46875 20.578125 C-32.81865002 14.731109 -23.86318321 9.61373496 -14.625 4.75 C-13.52470459 4.16460449 -12.42440918 3.57920898 -11.29077148 2.97607422 C-10.25895752 2.44256348 -9.22714355 1.90905273 -8.1640625 1.359375 C-7.24061035 0.87952148 -6.3171582 0.39966797 -5.36572266 -0.09472656 C-3 -1 -3 -1 0 0 Z " fill="#CDBFAC" transform="translate(294,45)"/>
<path d="M0 0 C4.06758542 2.65725982 6.46045869 5.30503298 7.97265625 10.01953125 C8.62053763 14.91103567 8.64730952 19.41058181 6.41015625 23.89453125 C2.9921963 28.27653118 -0.05239256 30.56220912 -5.4921875 31.3984375 C-11.17353533 31.66328229 -14.63601999 30.88807837 -19.02734375 27.01953125 C-23.27115409 22.20223303 -24.2762779 19.5466656 -24.17578125 13.265625 C-23.88927382 8.93031525 -22.58225598 6.66692885 -19.77734375 3.39453125 C-13.54577773 -1.98727576 -7.62025595 -3.6853261 0 0 Z M-20.33984375 6.26953125 C-22.49614139 9.78349778 -23.2208155 12.94888565 -23.02734375 17.01953125 C-21.47508005 22.19374359 -19.71413547 25.26858828 -15.02734375 28.01953125 C-10.39880198 29.77698508 -7.10925762 30.30804161 -2.27734375 29.01953125 C2.01743191 26.37659238 5.07296853 23.86065036 6.640625 18.91015625 C7.51259312 13.90281457 6.89454663 10.14664453 4.33203125 5.75 C1.54496624 2.20209828 -1.63381307 0.46397795 -6.046875 -0.35546875 C-12.48121617 -0.74915693 -15.93287761 1.9816723 -20.33984375 6.26953125 Z " fill="#D3C5B4" transform="translate(256.02734375,480.98046875)"/>
<path d="M0 0 C0.99 0.495 0.99 0.495 2 1 C1.40799805 1.35602295 0.81599609 1.7120459 0.20605469 2.07885742 C-16.15892417 11.93725943 -32.26294823 22.11014501 -48.109375 32.78125 C-49.34533316 33.6117198 -50.58133578 34.44212343 -51.81738281 35.27246094 C-54.2382509 36.89888435 -56.65335186 38.53342768 -59.06542969 40.17285156 C-60.17886289 40.9227838 -61.29246188 41.67246998 -62.40625 42.421875 C-63.38916016 43.08799805 -64.37207031 43.75412109 -65.38476562 44.44042969 C-67.68563634 45.8125322 -69.38474035 46.56206007 -72 47 C-69.20186997 44.04211584 -66.35063401 41.73967171 -62.95703125 39.49609375 C-61.97452393 38.84358643 -60.9920166 38.1910791 -59.97973633 37.51879883 C-58.93454834 36.83197021 -57.88936035 36.1451416 -56.8125 35.4375 C-55.73186279 34.72295654 -54.65122559 34.00841309 -53.5378418 33.2722168 C-50.36231072 31.17571076 -47.18207542 29.08655595 -44 27 C-43.19175781 26.46858398 -42.38351563 25.93716797 -41.55078125 25.38964844 C-33.04691053 19.80564356 -24.45071776 14.37361452 -15.8125 9 C-14.48375854 8.17109253 -14.48375854 8.17109253 -13.12817383 7.32543945 C-4.075283 1.72391443 -4.075283 1.72391443 0 0 Z " fill="#D0C1B0" transform="translate(127,518)"/>
<path d="M0 0 C0.99 0.495 0.99 0.495 2 1 C-7.53490109 6.96496182 -17.30179115 12.32232547 -27.29711914 17.4765625 C-33.42105297 20.63937941 -39.48732179 23.88058915 -45.5 27.25 C-46.21978027 27.65186523 -46.93956055 28.05373047 -47.68115234 28.46777344 C-50.51411005 30.04977269 -53.3464549 31.63281181 -56.17529297 33.22216797 C-58.25728377 34.38738773 -60.34627475 35.5389567 -62.4375 36.6875 C-63.36949219 37.2148877 -63.36949219 37.2148877 -64.3203125 37.75292969 C-65.84011455 38.5802826 -67.41743608 39.30014105 -69 40 C-69.99 39.67 -70.98 39.34 -72 39 C-58.85522049 31.79400417 -45.67425534 24.65819718 -32.44677734 17.60522461 C-26.74047389 14.55958411 -21.05143364 11.48751674 -15.3984375 8.34375 C-14.37878906 7.77849609 -13.35914063 7.21324219 -12.30859375 6.63085938 C-10.39330684 5.56610267 -8.48165722 4.49476918 -6.57421875 3.41601562 C-5.73246094 2.94873047 -4.89070313 2.48144531 -4.0234375 2 C-3.29044434 1.5875 -2.55745117 1.175 -1.80224609 0.75 C-1.20750488 0.5025 -0.61276367 0.255 0 0 Z " fill="#BAB9B0" transform="translate(205,687)"/>
<path d="M0 0 C20.18723633 0.85539137 40.12686838 8.63566063 58.34765625 16.93359375 C60.98745825 18.18651962 60.98745825 18.18651962 64 18 C66.95581569 19.80968308 69.54711684 21.54711684 72 24 C72 24.99 72 25.98 72 27 C61.79934378 23.84265403 61.79934378 23.84265403 58.54956055 20.51464844 C55.81716238 17.8438121 52.29961889 16.70596752 48.8125 15.25 C47.98532471 14.90364502 47.15814941 14.55729004 46.3059082 14.20043945 C31.46297192 8.1801412 15.74303785 3.91024467 0 1 C0 0.67 0 0.34 0 0 Z " fill="#F6ECDE" transform="translate(266,279)"/>
<path d="M0 0 C0.66 0.33 1.32 0.66 2 1 C1.44054687 1.38929688 0.88109375 1.77859375 0.3046875 2.1796875 C-1.42952709 3.38973434 -3.16100119 4.6037127 -4.890625 5.8203125 C-7.0398311 7.32691677 -9.19478075 8.82071309 -11.359375 10.3046875 C-18.52358396 15.26274949 -25.06171301 20.53958856 -31.3828125 26.53515625 C-33.47592722 28.50643295 -35.5913117 30.3661256 -37.8125 32.1875 C-41.02397426 34.88326307 -43.64748282 37.9731626 -46.35546875 41.1640625 C-48.36396356 43.40632511 -50.56857143 45.23168831 -53 47 C-51.65286997 44.03019989 -50.13451672 41.83869086 -47.91015625 39.4609375 C-47.2968042 38.80327393 -46.68345215 38.14561035 -46.05151367 37.46801758 C-45.0669519 36.43197388 -45.0669519 36.43197388 -44.0625 35.375 C-43.38227783 34.65787842 -42.70205566 33.94075684 -42.0012207 33.2019043 C-29.79812045 20.43790727 -15.8989616 8.03018619 0 0 Z " fill="#D4C7B5" transform="translate(140,302)"/>
<path d="M0 0 C0 3.90225063 -1.63166228 5.0461992 -4.26586914 7.73388672 C-4.87938232 8.3373291 -5.49289551 8.94077148 -6.125 9.5625 C-6.75591553 10.18656738 -7.38683105 10.81063477 -8.03686523 11.45361328 C-14.202358 17.41478849 -20.82720238 22.33146236 -28 27 C-29.57007813 28.04414062 -29.57007813 28.04414062 -31.171875 29.109375 C-37.29236739 33.0374522 -43.5778282 36.40838804 -50.125 39.5625 C-50.86016846 39.92166504 -51.59533691 40.28083008 -52.3527832 40.65087891 C-57.63741314 43.12086229 -57.63741314 43.12086229 -61 42 C-60.4423999 41.74943848 -59.8847998 41.49887695 -59.31030273 41.24072266 C-36.64842377 30.97478673 -17.38935449 17.96899964 0 0 Z " fill="#BCBDB2" transform="translate(824,602)"/>
<path d="M0 0 C19.44592088 5.65583973 38.55320005 19.17283279 54 32 C53.01 32.495 53.01 32.495 52 33 C51.52916992 32.6690332 51.05833984 32.33806641 50.57324219 31.99707031 C34.32177345 20.61712618 17.62262251 10.13289196 0 1 C0 0.67 0 0.34 0 0 Z " fill="#D4C6B4" transform="translate(493,87)"/>
<path d="M0 0 C0.33 0.66 0.66 1.32 1 2 C-0.18066406 4.58764648 -0.18066406 4.58764648 -2.015625 7.87109375 C-2.34282532 8.46131317 -2.67002563 9.05153259 -3.00714111 9.65963745 C-4.0802159 11.59010549 -5.16483489 13.51380633 -6.25 15.4375 C-6.98556335 16.75450148 -7.72058802 18.07180397 -8.45507812 19.3894043 C-14.19159387 29.65713199 -20.03997099 39.86037437 -26 50 C-26.33 49.34 -26.66 48.68 -27 48 C-26.09472656 45.77954102 -26.09472656 45.77954102 -24.640625 43.00390625 C-24.10679199 41.97869873 -23.57295898 40.95349121 -23.02294922 39.8972168 C-22.43787598 38.79676025 -21.85280273 37.69630371 -21.25 36.5625 C-20.66105957 35.44335205 -20.07211914 34.3242041 -19.46533203 33.17114258 C-5.55159116 6.91227527 -5.55159116 6.91227527 0 0 Z " fill="#D2C2AF" transform="translate(169,603)"/>
<path d="M0 0 C0.66 0 1.32 0 2 0 C-3.97172323 13.79782366 -22.09809784 23.27292133 -34.875 29.75 C-35.55900879 30.09756348 -36.24301758 30.44512695 -36.94775391 30.80322266 C-38.59999033 31.60475276 -40.29730555 32.31212843 -42 33 C-42.66 32.67 -43.32 32.34 -44 32 C-42.9584375 31.48953125 -41.916875 30.9790625 -40.84375 30.453125 C-26.68068262 23.33661666 -8.98920352 13.48380528 0 0 Z " fill="#B8B9B0" transform="translate(792,572)"/>
<path d="M0 0 C4.80310001 1.34544669 8.5173827 3.44878591 12.5 6.375 C13.09731934 6.8076416 13.69463867 7.2402832 14.31005859 7.68603516 C22.54993095 13.75242329 31.13264138 20.39565655 38 28 C38 28.66 38 29.32 38 30 C34.83368336 28.61430344 32.89322613 27.03317227 30.5625 24.5 C22.25170201 15.98912724 12.21792006 9.33490712 2.38671875 2.71484375 C1.59910156 2.14894531 0.81148438 1.58304687 0 1 C0 0.67 0 0.34 0 0 Z " fill="#CCBFB0" transform="translate(295,269)"/>
<path d="M0 0 C14.5560815 5.29081919 26.63088282 20.12277844 36 32 C35.505 32.99 35.505 32.99 35 34 C34.24976563 33.17757812 33.49953125 32.35515625 32.7265625 31.5078125 C23.72247474 21.66833972 14.86948981 12.0932978 4.11352539 4.1340332 C2.72813128 3.10828666 1.36194567 2.05668198 0 1 C0 0.67 0 0.34 0 0 Z " fill="#B6B6AF" transform="translate(796,357)"/>
<path d="M0 0 C0 0.99 0 1.98 0 3 C-11.66026214 12.37198544 -27.07805157 20.66085783 -41 26 C-36.44200918 20.60053395 -30.63988445 17.90005839 -24.4375 14.6875 C-15.95117082 10.20301497 -7.77920797 5.64674964 0 0 Z " fill="#CDBEAC" transform="translate(170,492)"/>
<path d="M0 0 C0.66 0.33 1.32 0.66 2 1 C-3.66205825 5.74756774 -9.32135787 10.48797316 -15.125 15.0625 C-21.00620194 19.73510542 -26.68677117 24.68677117 -32 30 C-32.99 30 -33.98 30 -35 30 C-34.67 28.68 -34.34 27.36 -34 26 C-33.01 26 -32.02 26 -31 26 C-28.8710718 24.04460745 -28.8710718 24.04460745 -26.5625 21.4375 C-18.70866992 13.12407023 -9.23090913 6.6807094 0 0 Z " fill="#CDC4B6" transform="translate(163,172)"/>
<path d="M0 0 C-0.88147705 0.42297363 -1.7629541 0.84594727 -2.67114258 1.28173828 C-5.99563109 2.87793906 -9.3182564 4.47798716 -12.64038086 6.07910156 C-14.0682744 6.76664747 -15.49664647 7.4532006 -16.92553711 8.13867188 C-18.99985978 9.13399752 -21.07266472 10.13238474 -23.14453125 11.1328125 C-23.81936554 11.45832092 -24.49419983 11.78382935 -25.18948364 12.11920166 C-30.23023183 14.57253616 -35.12537256 17.23394666 -39.9675293 20.06201172 C-40.63824463 20.37154785 -41.30895996 20.68108398 -42 21 C-42.66 20.67 -43.32 20.34 -44 20 C-33.2145857 12.83640386 -21.7628216 7.36268074 -10 2 C-9.31260742 1.67209473 -8.62521484 1.34418945 -7.91699219 1.00634766 C-3.33800019 -1.11266673 -3.33800019 -1.11266673 0 0 Z " fill="#D0C2B0" transform="translate(254,86)"/>
<path d="M0 0 C-2.18564332 3.91770543 -4.37386633 7.83396447 -6.5625 11.75 C-7.17158203 12.84183594 -7.78066406 13.93367187 -8.40820312 15.05859375 C-12.5252274 22.42131441 -16.72384481 29.72864516 -21 37 C-21.33 36.34 -21.66 35.68 -22 35 C-21.1015625 32.99609375 -21.1015625 32.99609375 -19.625 30.4375 C-16.35581829 24.65709674 -13.24330007 18.80858021 -10.16064453 12.92749023 C-8.20648028 9.2173293 -6.20495227 5.56992272 -4 2 C-5.32 1.34 -6.64 0.68 -8 0 C-4.90645403 -0.99435406 -3.09720845 -0.87840996 0 0 Z " fill="#D0C2B0" transform="translate(192,566)"/>
<path d="M0 0 C0 0.66 0 1.32 0 2 C-0.84820312 2.46148437 -1.69640625 2.92296875 -2.5703125 3.3984375 C-11.52107129 8.34646847 -19.79364304 13.90617057 -28 20 C-28.8765625 20.6496875 -29.753125 21.299375 -30.65625 21.96875 C-32.44427447 23.30347249 -34.22355614 24.64990266 -36 26 C-36 25.01 -36 24.02 -36 23 C-28.53406675 15.93618165 -10.43610627 0 0 0 Z " fill="#D3C4B2" transform="translate(211,124)"/>
<path d="M0 0 C3.25207092 1.41738489 5.31361067 3.12526412 7.75 5.6875 C10.32301769 8.33619468 12.91393492 10.82411243 15.75 13.1875 C19.57630435 16.48577435 23.04664211 20.07003451 26.5 23.75 C27.31162598 24.6011438 27.31162598 24.6011438 28.13964844 25.46948242 C32 29.64365844 32 29.64365844 32 33 C27.43923537 28.46449785 22.88232285 23.92515256 18.328125 19.38305664 C16.77693658 17.83691089 15.22485376 16.29166194 13.671875 14.74731445 C11.44558219 12.5330902 9.22247893 10.31570774 7 8.09765625 C6.30003906 7.4028566 5.60007812 6.70805695 4.87890625 5.99220276 C4.23824219 5.35161423 3.59757813 4.7110257 2.9375 4.05102539 C2.36902344 3.48476944 1.80054688 2.91851349 1.21484375 2.33509827 C0 1 0 1 0 0 Z " fill="#D8C9B5" transform="translate(556,127)"/>
<path d="M0 0 C5.9903726 2.10988345 10.20323051 5.94226767 15 10 C16.299375 11.09441406 16.299375 11.09441406 17.625 12.2109375 C23.14801196 17.00989606 27.7488256 22.04554049 32 28 C29 28 29 28 27.125 26.1640625 C26.42375 25.32617188 25.7225 24.48828125 25 23.625 C17.99069617 15.58023083 10.13419199 8.64278739 1.58203125 2.27734375 C1.05996094 1.85582031 0.53789063 1.43429687 0 1 C0 0.67 0 0.34 0 0 Z " fill="#BBBCB2" transform="translate(767,389)"/>
<path d="M0 0 C0.66 0.33 1.32 0.66 2 1 C-2.71480811 5.27243105 -7.4906241 9.43489956 -12.4375 13.4375 C-17.10960906 17.2212503 -21.58348182 21.17613684 -26.00390625 25.25 C-28 27 -28 27 -30 28 C-24.72387269 16.10902651 -10.0050377 7.6828808 0 0 Z " fill="#D1C4B0" transform="translate(362,475)"/>
<path d="M0 0 C0.66 0 1.32 0 2 0 C0.38181805 5.9596457 -2.66380413 10.95830318 -5.75 16.25 C-6.26304688 17.14074219 -6.77609375 18.03148437 -7.3046875 18.94921875 C-10.80346267 25.00614361 -14.38414876 31.01235715 -18 37 C-18.33 36.34 -18.66 35.68 -19 35 C-18.12304688 32.85205078 -18.12304688 32.85205078 -16.71875 30.1953125 C-16.20940918 29.22408447 -15.70006836 28.25285645 -15.17529297 27.25219727 C-14.62244629 26.22022217 -14.06959961 25.18824707 -13.5 24.125 C-12.94844238 23.084646 -12.39688477 22.04429199 -11.82861328 20.97241211 C-2.54152864 3.53835574 -2.54152864 3.53835574 0 0 Z " fill="#B2B2A9" transform="translate(110,707)"/>
<path d="M0 0 C0.33 0 0.66 0 1 0 C1 11.88 1 23.76 1 36 C0.67 36 0.34 36 0 36 C-0.50449402 33.41747107 -1.00374301 30.83411297 -1.5 28.25 C-1.64308594 27.52039063 -1.78617188 26.79078125 -1.93359375 26.0390625 C-2.58888879 22.60656468 -3 19.50830509 -3 16 C-2.01 16 -1.02 16 0 16 C0 10.72 0 5.44 0 0 Z " fill="#F5EBDE" transform="translate(535,293)"/>
<path d="M0 0 C0.99 0.33 1.98 0.66 3 1 C2.45730469 1.36351562 1.91460937 1.72703125 1.35546875 2.1015625 C-3.07484933 5.21475899 -6.41443651 7.60908413 -8 13 C-8.18661475 17.78412355 -7.63316979 21.0598388 -4.9375 25.0625 C-4.298125 25.701875 -3.65875 26.34125 -3 27 C-3.33 27.66 -3.66 28.32 -4 29 C-9.11442049 22.9676066 -10.52911508 20.00634655 -10 12 C-8.59318918 6.37275674 -4.70561939 3.13707959 0 0 Z " fill="#CABDAB" transform="translate(242,480)"/>
<path d="M0 0 C0 0.99 0 1.98 0 3 C1.32 2.67 2.64 2.34 4 2 C-1.66666667 7.66666667 -7.33333333 13.33333333 -13 19 C-13 15.43885446 -12.37271925 14.87105679 -10.15625 12.20703125 C-9.56972656 11.49482422 -8.98320312 10.78261719 -8.37890625 10.04882812 C-7.75886719 9.31083984 -7.13882813 8.57285156 -6.5 7.8125 C-5.87996094 7.06291016 -5.25992188 6.31332031 -4.62109375 5.54101562 C-3.08716319 3.68849949 -1.54666491 1.84188552 0 0 Z " fill="#F6EEE4" transform="translate(144,181)"/>
<path d="M0 0 C0.99 0.33 1.98 0.66 3 1 C1.68 1.33 0.36 1.66 -1 2 C-1 2.66 -1 3.32 -1 4 C-4.72650762 5.01009266 -8.45659459 6.00628554 -12.1875 7 C-13.24259766 7.28617188 -14.29769531 7.57234375 -15.38476562 7.8671875 C-16.40634766 8.13789062 -17.42792969 8.40859375 -18.48046875 8.6875 C-19.41785889 8.93886719 -20.35524902 9.19023438 -21.32104492 9.44921875 C-23.96253273 9.9922969 -26.31217316 10.1023122 -29 10 C-26.04943556 8.03295704 -23.90517994 7.26425929 -20.52734375 6.30859375 C-19.46322266 6.00373047 -18.39910156 5.69886719 -17.30273438 5.38476562 C-16.19220703 5.07216797 -15.08167969 4.75957031 -13.9375 4.4375 C-11.73781557 3.81283542 -9.53857314 3.18661166 -7.33984375 2.55859375 C-6.36394287 2.28329834 -5.38804199 2.00800293 -4.38256836 1.72436523 C-2.01466116 1.07720731 -2.01466116 1.07720731 0 0 Z " fill="#D8D9D3" transform="translate(764,642)"/>
<path d="M0 0 C-1.05058594 0.64066406 -2.10117188 1.28132813 -3.18359375 1.94140625 C-10.76754939 6.60192756 -18.1634464 11.26489114 -25 17 C-25 16.01 -25 15.02 -25 14 C-23.0587824 12.22980157 -21.16651744 10.67879396 -19.0625 9.125 C-18.47291504 8.68244873 -17.88333008 8.23989746 -17.27587891 7.78393555 C-4.64745 -1.54915 -4.64745 -1.54915 0 0 Z " fill="#CCBBAA" transform="translate(110,267)"/>
<path d="M0 0 C5.34634876 1.58175999 9.1177231 5.11623219 13.3125 8.625 C14.42334961 9.54152344 14.42334961 9.54152344 15.55664062 10.4765625 C17.37580451 11.97883977 19.18998451 13.486724 21 15 C19.10913086 15.56494141 19.10913086 15.56494141 17 16 C15.25390625 14.9609375 15.25390625 14.9609375 13.5625 13.375 C12.95792969 12.81683594 12.35335937 12.25867188 11.73046875 11.68359375 C9.46265753 9.47721308 7.20823367 7.26634508 5 5 C4.071875 4.071875 3.14375 3.14375 2.1875 2.1875 C1.465625 1.465625 0.74375 0.74375 0 0 Z " fill="#EEE4D4" transform="translate(537,111)"/>
<path d="M0 0 C0.66 0.33 1.32 0.66 2 1 C0.68 2.65 -0.64 4.3 -2 6 C-1.34 6.33 -0.68 6.66 0 7 C-0.68707031 7.39832031 -1.37414062 7.79664062 -2.08203125 8.20703125 C-2.98308594 8.73683594 -3.88414062 9.26664063 -4.8125 9.8125 C-5.70582031 10.33457031 -6.59914062 10.85664062 -7.51953125 11.39453125 C-9.66831987 12.78532199 -11.29361617 14.1122066 -13 16 C-13.66 15.01 -14.32 14.02 -15 13 C-14.28457031 12.61199219 -13.56914062 12.22398438 -12.83203125 11.82421875 C-9.67625579 9.79146407 -7.30425582 7.49903597 -4.6875 4.8125 C-3.36298828 3.46091797 -3.36298828 3.46091797 -2.01171875 2.08203125 C-1.34785156 1.39496094 -0.68398437 0.70789063 0 0 Z " fill="#F1E8DC" transform="translate(221,93)"/>
<path d="M0 0 C2.95594626 1.33106131 5.03288866 2.785078 7.3125 5.08203125 C7.91320312 5.68466797 8.51390625 6.28730469 9.1328125 6.90820312 C9.74898437 7.53662109 10.36515625 8.16503906 11 8.8125 C11.61617187 9.42931641 12.23234375 10.04613281 12.8671875 10.68164062 C16.12946452 13.97542032 19.18517608 17.3055436 22 21 C21.67 21.66 21.34 22.32 21 23 C18.43459719 20.29440385 15.87321422 17.5850335 13.3125 14.875 C12.59126953 14.11445312 11.87003906 13.35390625 11.12695312 12.5703125 C7.27104228 8.48551197 3.53564243 4.36550722 0 0 Z " fill="#C7BAA8" transform="translate(605,97)"/>
<path d="M0 0 C3.43359286 3.35458984 6.62780464 6.80135298 9.6875 10.5 C10.83798828 11.87671875 10.83798828 11.87671875 12.01171875 13.28125 C13.87125719 15.82395875 14.99465121 18.03233939 16 21 C12.66666667 17.66666667 9.33333333 14.33333333 6 11 C5.443125 10.505 4.88625 10.01 4.3125 9.5 C1.93626587 6.78430385 1.12515773 3.37547318 0 0 Z " fill="#F1E7D7" transform="translate(591,160)"/>
<path d="M0 0 C0.66 0.33 1.32 0.66 2 1 C-9.23046875 7.73828125 -9.23046875 7.73828125 -11.18896484 8.90869141 C-12.75711705 9.85364158 -14.3115519 10.82128557 -15.86328125 11.79296875 C-18 13 -18 13 -20 13 C-18.7951094 9.3853282 -18.08033352 9.20269396 -14.81640625 7.484375 C-13.97142578 7.03835938 -13.12644531 6.59234375 -12.25585938 6.1328125 C-11.36705078 5.67648437 -10.47824219 5.22015625 -9.5625 4.75 C-8.23508789 4.04230469 -8.23508789 4.04230469 -6.88085938 3.3203125 C-1.97365529 0.763932 -1.97365529 0.763932 0 0 Z " fill="#C0C0B6" transform="translate(205,687)"/>
<path d="M0 0 C0.66 0.33 1.32 0.66 2 1 C1.27554688 1.71285156 0.55109375 2.42570313 -0.1953125 3.16015625 C-5.36173809 8.26944494 -10.3798719 13.38092529 -15 19 C-15.66 18.67 -16.32 18.34 -17 18 C-11.51481106 11.80376805 -5.92437965 5.77909513 0 0 Z " fill="#F0E3D6" transform="translate(167,156)"/>
<path d="M0 0 C3.32366742 3.05099404 5.54224226 6.23449516 7.8125 10.125 C8.43769531 11.17945313 9.06289063 12.23390625 9.70703125 13.3203125 C10.13371094 14.20460937 10.56039063 15.08890625 11 16 C10.67 16.66 10.34 17.32 10 18 C6.2595108 14.77544035 4.8310605 11.53784558 3 7 C2.443125 6.071875 1.88625 5.14375 1.3125 4.1875 C0 2 0 2 0 0 Z " fill="#F0E5D6" transform="translate(500,235)"/>
<path d="M0 0 C-1.18736612 3.56209836 -2.36511988 4.32905156 -5.3125 6.5625 C-6.09238281 7.16191406 -6.87226563 7.76132812 -7.67578125 8.37890625 C-9.73331348 9.81399176 -11.72588364 10.95401055 -14 12 C-12.48238697 8.17147621 -10.20656585 6.26678134 -7 3.75 C-6.113125 3.04359375 -5.22625 2.3371875 -4.3125 1.609375 C-2 0 -2 0 0 0 Z " fill="#D0C1AF" transform="translate(202,463)"/>
<path d="M0 0 C8.09280404 5.40998407 8.09280404 5.40998407 10 9 C10.1875 11.75 10.1875 11.75 10 14 C9.46375 13.319375 8.9275 12.63875 8.375 11.9375 C6.05209862 9.06443777 3.63643174 6.30205622 1.171875 3.55078125 C0 2 0 2 0 0 Z " fill="#D1D1CD" transform="translate(828,388)"/>
<path d="M0 0 C0.66 0.33 1.32 0.66 2 1 C-0.38172388 3.73544525 -2.70665291 4.92545358 -6.0625 6.25 C-7.37927734 6.78367187 -7.37927734 6.78367187 -8.72265625 7.328125 C-11 8 -11 8 -13 7 C-10.88002166 5.80266012 -8.75486324 4.61701287 -6.625 3.4375 C-6.02171875 3.09525391 -5.4184375 2.75300781 -4.796875 2.40039062 C-3.23021759 1.53872905 -1.61709138 0.76281817 0 0 Z " fill="#D3D2CB" transform="translate(128,727)"/>
<path d="M0 0 C0.33 0.66 0.66 1.32 1 2 C-0.24282012 4.45038293 -1.52882339 6.773325 -2.9375 9.125 C-3.32357422 9.78371094 -3.70964844 10.44242188 -4.10742188 11.12109375 C-5.06446578 12.751613 -6.03132815 14.37636184 -7 16 C-7.66 16 -8.32 16 -9 16 C-7.56691865 12.04093183 -5.66858051 8.71281819 -3.375 5.1875 C-2.74335938 4.21167969 -2.11171875 3.23585938 -1.4609375 2.23046875 C-0.73777344 1.12638672 -0.73777344 1.12638672 0 0 Z " fill="#D8C9B6" transform="translate(169,603)"/>
<path d="M0 0 C0 0.66 0 1.32 0 2 C-2.1335282 3.78770907 -4.26844058 5.46872824 -6.5 7.125 C-7.43005859 7.82689453 -7.43005859 7.82689453 -8.37890625 8.54296875 C-9.91502517 9.70096609 -11.45698059 10.85121357 -13 12 C-13.66 11.67 -14.32 11.34 -15 11 C-13.58510266 9.72719706 -12.16800334 8.4568417 -10.75 7.1875 C-9.96109375 6.47980469 -9.1721875 5.77210938 -8.359375 5.04296875 C-2.53537285 0 -2.53537285 0 0 0 Z " fill="#CDC1AD" transform="translate(125,313)"/>
<path d="M0 0 C3.465 1.485 3.465 1.485 7 3 C6.34 2.01 5.68 1.02 5 0 C7.46800047 1.15173355 9.04783565 2.04783565 11 4 C11 4.99 11 5.98 11 7 C6.76570244 5.68938409 2.92592596 4.05643741 -1 2 C-0.67 1.34 -0.34 0.68 0 0 Z " fill="#DDD6CA" transform="translate(327,299)"/>
<path d="M0 0 C0.33 0.99 0.66 1.98 1 3 C-0.4375 5.6875 -0.4375 5.6875 -2 8 C-1.34 8.66 -0.68 9.32 0 10 C-2.375 11.5625 -2.375 11.5625 -5 13 C-5.66 12.67 -6.32 12.34 -7 12 C-4.69 8.04 -2.38 4.08 0 0 Z " fill="#DDDDD9" transform="translate(96,736)"/>
<path d="M0 0 C2.06451491 2.06451491 4.12008708 4.12715102 6.125 6.25 C7.81622083 8.22743942 7.81622083 8.22743942 10 8 C10 9.32 10 10.64 10 12 C7.16582109 11.64880827 6.18351911 11.21508776 4.296875 9.00390625 C3.78640625 8.19824219 3.2759375 7.39257812 2.75 6.5625 C1.96882813 5.35787109 1.96882813 5.35787109 1.171875 4.12890625 C0 2 0 2 0 0 Z " fill="#D9D4C3" transform="translate(43,521)"/>
<path d="M0 0 C0.66 0.33 1.32 0.66 2 1 C-3.445 7.435 -3.445 7.435 -9 14 C-9 10.02785867 -7.56892582 8.89680688 -5.0625 5.875 C-4.33160156 4.98554688 -3.60070313 4.09609375 -2.84765625 3.1796875 C-1 1 -1 1 0 0 Z " fill="#CDBCA9" transform="translate(62,303)"/>
<path d="M0 0 C0 0.66 0 1.32 0 2 C-6.93 4.97 -6.93 4.97 -14 8 C-14 7.34 -14 6.68 -14 6 C-12.2335343 4.9923048 -10.46166177 3.99408286 -8.6875 3 C-7.20830078 2.1646875 -7.20830078 2.1646875 -5.69921875 1.3125 C-3 0 -3 0 0 0 Z " fill="#CFC1AF" transform="translate(225,117)"/>
<path d="M0 0 C4.0081803 3.67416528 6.52591615 7.14346504 9 12 C9 12.66 9 13.32 9 14 C8.34 14 7.68 14 7 14 C5.2734375 11.4453125 5.2734375 11.4453125 3.375 8.125 C2.74335937 7.03445313 2.11171875 5.94390625 1.4609375 4.8203125 C0 2 0 2 0 0 Z " fill="#BAB9B3" transform="translate(840,402)"/>
<path d="M0 0 C3.78155989 1.26051996 4.25618367 2.56446606 6.25 5.9375 C6.79140625 6.83339844 7.3328125 7.72929687 7.890625 8.65234375 C8.25671875 9.42707031 8.6228125 10.20179688 9 11 C8.67 11.66 8.34 12.32 8 13 C6.66094733 11.2126038 5.32890934 9.41995047 4 7.625 C3.2575 6.62726563 2.515 5.62953125 1.75 4.6015625 C0 2 0 2 0 0 Z " fill="#D8CAB6" transform="translate(497,234)"/>
<path d="M0 0 C4.43090471 1.20842856 6.98112756 2.51668565 10 6 C6.68437443 5.44739574 3.84937793 4.83174295 1 3 C0.67 2.01 0.34 1.02 0 0 Z " fill="#CFD1CA" transform="translate(759,383)"/>
<path d="M0 0 C5.29158974 1.40071493 7.77478044 4.85487245 11 9 C8.03469503 7.64199529 5.70868729 6.07571737 3.25 3.9375 C2.63640625 3.41027344 2.0228125 2.88304688 1.390625 2.33984375 C0.93171875 1.89769531 0.4728125 1.45554687 0 1 C0 0.67 0 0.34 0 0 Z " fill="#CDC1B0" transform="translate(595,88)"/>
<path d="M0 0 C0.66 0.33 1.32 0.66 2 1 C0.10595266 4.34243648 -0.94091591 4.97997149 -4.6875 6.25 C-6.3271875 6.62125 -6.3271875 6.62125 -8 7 C-5.42215154 4.35247996 -3.08351902 2.05567935 0 0 Z " fill="#EDE1D2" transform="translate(367,470)"/>
<path d="M0 0 C1.1725131 0.95117134 2.33787015 1.91117009 3.5 2.875 C4.47453125 3.67550781 4.47453125 3.67550781 5.46875 4.4921875 C5.9740625 4.98976563 6.479375 5.48734375 7 6 C7 6.66 7 7.32 7 8 C4.13792848 6.71700242 1.9754912 5.469364 0 3 C0 2.01 0 1.02 0 0 Z " fill="#D2C7B9" transform="translate(326,291)"/>
<path d="M0 0 C0.33 0.66 0.66 1.32 1 2 C-1.57404971 5.86107457 -3.61020259 5.94319692 -8 7 C-5.42215154 4.35247996 -3.08351902 2.05567935 0 0 Z " fill="#EBDED0" transform="translate(168,167)"/>
<path d="M0 0 C2.96404505 2.80804268 5.44499019 5.18315774 7 9 C3.46352496 7.32482761 2.2088437 6.50719183 0.6875 2.8125 C0.460625 1.884375 0.23375 0.95625 0 0 Z " fill="#D5D7D2" transform="translate(797,414)"/>
<path d="M0 0 C0.66 0.33 1.32 0.66 2 1 C1.01 2.485 1.01 2.485 0 4 C-3.625 4.6875 -3.625 4.6875 -7 5 C-4.88437775 2.67281553 -2.94982021 1.14186589 0 0 Z " fill="#EADECF" transform="translate(145,298)"/>
</svg>
